<?xml version="1.0" encoding="utf-8" ?><svg xmlns="http://www.w3.org/2000/svg" xmlns:xlink="http://www.w3.org/1999/xlink" width="894" height="854" viewBox="0 0 894 854"><path fill="white" transform="scale(2.66071 2.66044)" d="M0 0L336 0L336 321L0 321L0 0Z"/><path fill="#454877" transform="scale(2.66071 2.66044)" d="M157.42 4.41073C244.012 -0.879844 318.484 65.057 323.721 151.652C328.958 238.247 262.975 312.678 176.377 317.861C89.8545 323.04 15.5028 257.127 10.2704 170.608C5.03808 84.0892 70.9046 9.69667 157.42 4.41073Z"/><path fill="white" transform="scale(2.66071 2.66044)" d="M159.414 9.44439C243.276 5.25393 314.625 69.9076 318.691 153.775C322.758 237.643 257.999 308.896 174.125 312.839C90.4268 316.773 19.3547 252.179 15.2967 168.486C11.2386 84.7936 75.7279 13.6261 159.414 9.44439Z"/><path fill="#7CB0BA" transform="scale(2.66071 2.66044)" d="M211.673 78.6071C219.06 77.7307 229.424 78.8306 236.719 80.0371C241.807 80.8788 246.99 81.6003 251.969 82.96C257.05 84.3475 262.341 85.9422 267.311 87.6805C272.198 89.3898 300.625 100.335 302.497 103.062C304.151 105.471 308.4 119.427 309.207 122.753C310.526 128.189 311.968 133.643 312.826 139.174C315.031 153.379 314.966 170.227 312.602 184.439C311.601 190.456 309.651 196.277 308.643 202.277C284.792 197.258 262.451 189.909 240.109 180.185C208.764 166.543 180.121 150.856 146.053 144.987C109.527 139.573 80.4564 150.56 47.6937 165.364L29.8139 173.422C27.2082 174.591 23.282 176.527 20.6973 177.417L20.4176 177.512C19.2653 162.904 19.8197 154.285 20.7853 139.846C43.5168 136.94 65.5568 130.452 86.9833 122.558C87.9465 122.203 88.9098 121.87 89.8623 121.483C102.13 116.395 114.314 111.105 126.408 105.616C154.456 92.7976 180.385 80.6752 211.673 78.6071Z"/><path fill="#5B7DA2" transform="scale(2.66071 2.66044)" d="M123.812 146.608C131.063 146.2 144.489 147.22 151.656 148.71C181.884 154.994 209.849 169.905 237.984 182.212C254.318 189.427 271.149 195.455 288.349 200.251C295.212 202.163 300.713 203.796 307.819 204.906C302.976 219.903 295.868 234.072 286.742 246.921C284.967 249.469 281.4 254.366 279.264 256.576C278.269 256.465 277.321 256.418 276.394 256.044C275.641 255.259 275.875 255.633 275.621 254.41C274.885 253.681 265.711 254.006 263.932 254.007L241.73 254.008L241.738 246.5C230.528 246.333 218.925 246.458 207.693 246.472C207.773 240.675 207.74 234.81 207.751 229.008C201.773 229.153 194.913 228.995 188.875 228.982L173.99 229.007L174.005 202.261C162.622 202.06 150.944 202.211 139.534 202.142C139.576 195.909 139.581 189.676 139.549 183.444C128.125 183.818 114.894 183.403 103.242 183.49L103.252 187.624C93.1777 187.506 79.3472 187.186 69.4617 187.743C69.1782 194.992 69.4304 204.101 69.4444 211.469L35.2753 211.498C35.2302 217.036 35.3666 221.974 35.5032 227.506C34.225 224.678 32.6282 221.977 31.4169 219.092C26.1781 206.609 22.7796 193.351 20.6319 180.009C25.3805 178.673 27.0602 177.339 31.2269 175.602C35.3839 173.869 39.1633 171.976 43.1806 170.22L60.3541 162.786C71.0348 158.167 81.4841 153.928 92.8628 151.24C96.6858 150.337 100.264 149.057 104.216 148.454C110.725 147.461 117.242 146.955 123.812 146.608Z"/><path fill="#454877" transform="scale(2.66071 2.66044)" d="M105.83 185.435C115.809 185.834 127.43 185.544 137.466 185.506L137.38 263.387C137.383 277.054 137.087 291.849 137.434 305.423C137.067 305.527 124.396 302.466 123.222 302.032C117.68 299.981 111.047 297.891 105.759 295.346L105.753 226.314C105.753 212.918 105.535 198.777 105.83 185.435Z"/><path fill="#454877" transform="scale(2.66071 2.66044)" d="M139.596 204.481C149.475 204.836 161.2 204.526 171.234 204.496L171.166 272.917C171.165 284.445 170.928 296.9 171.251 308.368C160.624 308.657 149.994 307.908 139.513 306.132C139.895 272.37 139.428 238.284 139.596 204.481Z"/><path fill="#454877" transform="scale(2.66071 2.66044)" d="M71.7337 189.875C81.8606 189.605 93.0152 189.809 103.235 189.788L103.229 261.044L103.25 282.571C103.253 285.518 103.425 291.251 103.134 293.891C100.844 292.463 97.6961 291.26 95.1114 289.756C87.2189 285.165 78.4799 279.534 71.5393 273.626C71.8385 270.184 71.7435 265.76 71.745 262.242L71.7478 244.862L71.7337 189.875Z"/><path fill="#454877" transform="scale(2.66071 2.66044)" d="M173.944 231.055C184.39 231.139 194.838 231.137 205.284 231.05C205.228 233.774 205.219 236.598 205.241 239.324C205.407 260.626 204.872 282.064 205.3 303.351L201.103 304.462C190.866 307.152 184.378 307.872 173.971 308.237C174.164 298.413 173.993 288.006 173.995 278.144L173.944 231.055Z"/><path fill="#454877" transform="scale(2.66071 2.66044)" d="M207.748 249.2C218.314 249.287 228.88 249.31 239.445 249.269C239.332 261.906 238.991 276.95 239.515 289.478C237.029 290.927 233.747 292.445 231.123 293.742C225.001 297.01 214.453 301.214 207.698 302.827C207.898 296.84 207.745 290.073 207.744 283.999L207.748 249.2Z"/><path fill="#454877" transform="scale(2.66071 2.66044)" d="M37.7729 214.241L69.3536 214.286L69.3422 253.706C69.3437 257.556 69.6963 268.255 69.305 271.58C68.0975 271.023 66.1811 268.609 65.0787 267.58C54.8236 258.003 44.1227 244.096 37.5681 231.561C37.9891 227.606 37.7666 218.625 37.7729 214.241Z"/><path fill="#454877" transform="scale(2.66071 2.66044)" d="M241.749 256.406C244.438 256.642 249.8 256.509 252.676 256.507L273.222 256.468L273.21 263.337C270.585 266.568 264.169 271.974 260.857 274.83C256.637 278.441 246.608 285.693 241.621 287.808C242.117 278.507 241.748 265.89 241.749 256.406Z"/><path fill="#AFD9D2" transform="scale(2.66071 2.66044)" d="M117.993 49.7462C120.141 49.2007 122.411 49.9305 123.838 51.625C124.722 52.6741 125.203 54.0032 125.197 55.3748C125.191 56.7397 124.702 58.0585 123.817 59.0976C122.999 60.0571 121.891 60.7232 120.66 60.9943C117.577 61.673 114.52 59.7535 113.792 56.6822C113.064 53.6108 114.934 50.5233 117.993 49.7462Z"/><path fill="#AFD9D2" transform="scale(2.66071 2.66044)" d="M141.983 76.3047C151.736 75.4355 151.335 85.7223 145.581 87.2204C142.23 87.3955 141.206 87.5094 138.813 84.9183C137.76 80.8893 137.945 78.1166 141.983 76.3047Z"/><path fill="#AFD9D2" transform="scale(2.66071 2.66044)" d="M229.124 38.7178C231.753 37.2654 235.045 36.9477 236.676 40.0419C237.538 41.6509 237.717 43.5393 237.171 45.2814C235.355 50.9037 230.063 50.1744 226.846 45.8274C226.61 44.1392 226.445 43.1249 226.877 41.4479C226.499 41.1679 226.419 41.1551 226.002 40.9588C226.974 40.3919 227.716 39.5005 228.097 38.4411L229.124 38.7178Z"/><path fill="#E2F0ED" transform="scale(2.66071 2.66044)" d="M226.002 40.9588C226.974 40.3919 227.716 39.5005 228.097 38.4411L229.124 38.7178C228.82 39.0855 227.057 41.3002 226.877 41.4479C226.499 41.1679 226.419 41.1551 226.002 40.9588Z"/><path fill="#AFD9D2" transform="scale(2.66071 2.66044)" d="M206.212 58.1653C207.289 57.887 207.873 57.8238 208.97 57.6993L209.647 58.5092C214.167 59.8519 216.179 63.7581 212.735 67.6264C206.725 74.3762 199.086 63.1479 205.87 59.345L206.212 58.1653Z"/><path fill="#E2F0ED" transform="scale(2.66071 2.66044)" d="M206.212 58.1653C207.289 57.887 207.873 57.8238 208.97 57.6993L209.647 58.5092C208.184 59.3574 207.571 59.4818 205.87 59.345L206.212 58.1653Z"/><path fill="#AFD9D2" transform="scale(2.66071 2.66044)" d="M189.244 27.2613C190.331 27.2134 191.42 27.1845 192.509 27.1743C193.431 27.7394 194.22 28.2154 195.089 28.8635C199.022 36.8277 191.427 41.9852 185.852 35.6952C184.939 30.8813 185.002 29.7087 189.244 27.2613Z"/><path fill="#AFD9D2" transform="scale(2.66071 2.66044)" d="M261.765 55.5574C267.003 55.1928 267.651 56.721 268.908 61.1915C268.112 64.2565 267.961 65.3162 264.74 66.3362C262.02 66.7209 260.75 66.0758 258.467 64.5852C257.093 60.3381 257.367 57.4117 261.765 55.5574Z"/><path fill="#AFD9D2" transform="scale(2.66071 2.66044)" d="M131.361 83.783C133.265 83.0911 135.395 83.4876 136.923 84.8184C138.45 86.1493 139.135 88.2046 138.71 90.1856C138.286 92.1667 136.819 93.761 134.88 94.3489C133.189 94.8617 131.355 94.5418 129.938 93.4867C128.52 92.4317 127.687 90.7667 127.693 88.9997C127.701 86.6638 129.166 84.5808 131.361 83.783Z"/><path fill="#AFD9D2" transform="scale(2.66071 2.66044)" d="M56.8354 106.594C58.6017 103.327 61.7481 100.623 65.2354 102.933C71.6796 107.201 65.1676 118.161 58.0411 111.282C57.5337 110.67 57.3874 110.228 57.0696 109.509C56.9726 108.594 56.8182 107.498 56.8354 106.594Z"/><path fill="#AFD9D2" transform="scale(2.66071 2.66044)" d="M93.8479 69.5391C95.0516 69.4463 96.3998 69.693 97.6102 69.8637C98.669 70.5747 99.55 71.1815 100.164 72.3092C100.842 73.5567 100.981 75.0273 100.548 76.3798C99.9011 78.361 98.3622 79.5641 96.5867 80.4826C89.3737 80.9954 86.6645 72.0846 93.8479 69.5391Z"/><path fill="#AFD9D2" transform="scale(2.66071 2.66044)" d="M78.2906 85.3751C81.1839 84.5227 84.2265 86.146 85.1296 89.0238C86.0327 91.9017 84.4632 94.9724 81.6017 95.926C79.7054 96.558 77.6156 96.1174 76.1358 94.7737C74.6559 93.4299 74.0165 91.3922 74.4632 89.4439C74.9098 87.4955 76.3732 85.9399 78.2906 85.3751Z"/><path fill="#AFD9D2" transform="scale(2.66071 2.66044)" d="M102.842 59.2567C104.332 52.6985 115.445 54.5945 113.034 62.4848C112.619 63.8752 111.653 65.035 110.361 65.6944C107.967 66.9228 105.149 66.2241 103.892 63.7973L103.197 64.2211C102.999 63.1999 102.326 61.2988 101.987 60.2435L102.532 60.044L102.842 59.2567Z"/><path fill="#E2F0ED" transform="scale(2.66071 2.66044)" d="M101.987 60.2435L102.532 60.044L102.842 59.2567C103.145 61.1861 103.299 61.9128 103.892 63.7973L103.197 64.2211C102.999 63.1999 102.326 61.2988 101.987 60.2435Z"/><path fill="#AFD9D2" transform="scale(2.66071 2.66044)" d="M251.59 62.8961C254.322 62.2159 257.122 63.7257 258.055 66.3816C258.445 67.4894 258.466 68.6933 258.116 69.8142C257.538 71.6667 256.02 73.0727 254.129 73.5067C253.118 73.7385 252.062 73.6776 251.085 73.331C248.816 72.5263 247.343 70.33 247.46 67.9258C247.576 65.5216 249.255 63.4778 251.59 62.8961Z"/><path fill="#AFD9D2" transform="scale(2.66071 2.66044)" d="M220.552 44.2528C222.752 43.9928 224.891 45.0911 225.962 47.0309C226.834 48.6109 226.868 50.5202 226.051 52.1298C225.235 53.7393 223.674 54.8402 221.884 55.0696C218.889 55.4537 216.152 53.3282 215.783 50.3307C215.414 47.3332 217.553 44.6072 220.552 44.2528Z"/><path fill="#AFD9D2" transform="scale(2.66071 2.66044)" d="M118.902 92.7978C120.853 92.1988 122.976 92.7532 124.385 94.2301C125.794 95.707 126.248 97.8531 125.558 99.7742C124.958 101.444 123.574 102.712 121.858 103.165C119.196 103.866 116.433 102.449 115.449 99.8782C114.916 98.4838 114.984 96.9305 115.639 95.5884C116.293 94.2464 117.475 93.236 118.902 92.7978Z"/><path fill="#AFD9D2" transform="scale(2.66071 2.66044)" d="M134.336 25.688C135.876 25.4673 137.436 25.9261 138.612 26.9454C139.787 27.9647 140.462 29.4441 140.462 31C140.461 33.56 138.652 35.7629 136.14 36.2609C134.227 36.6403 132.258 35.9511 130.999 34.461C129.74 32.9709 129.389 30.9147 130.083 29.0913C130.776 27.268 132.405 25.9648 134.336 25.688Z"/><path fill="#AFD9D2" transform="scale(2.66071 2.66044)" d="M55.4061 118.12C40.7956 120.772 49.2116 101.326 56.4766 109.712L57.0696 109.509C57.3874 110.228 57.5337 110.67 58.0411 111.282L57.3424 111.652C58.7775 114.255 57.1686 116.312 55.4061 118.12Z"/><path fill="#E2F0ED" transform="scale(2.66071 2.66044)" d="M56.4766 109.712L57.0696 109.509C57.3874 110.228 57.5337 110.67 58.0411 111.282L57.3424 111.652C57.0983 111.301 56.6659 110.167 56.4766 109.712Z"/><path fill="#AFD9D2" transform="scale(2.66071 2.66044)" d="M66.7572 91.7371L71.4715 92.0802C74.8786 95.7204 75.1847 99.2944 70.5175 101.947C65.8911 102.348 64.7534 101.148 63.0665 97.0235C63.8443 94.4763 64.5409 93.2219 66.7572 91.7371Z"/><path fill="#AFD9D2" transform="scale(2.66071 2.66044)" d="M151.349 58.5093C153.413 58.5088 155.89 59.6045 156.954 61.4451C157.593 62.5381 157.744 63.8497 157.37 65.0596C156.744 67.1271 155.325 68.1635 153.504 69.1008C147.519 70.0995 143.678 61.9147 151.349 58.5093Z"/><path fill="#AFD9D2" transform="scale(2.66071 2.66044)" d="M120.304 38.3538C123.066 37.6491 125.885 39.2808 126.649 42.0265C127.413 44.7723 125.842 47.6253 123.114 48.4485C121.928 48.8062 120.655 48.7325 119.518 48.2407C117.462 47.3504 116.199 45.2505 116.376 43.0162C116.554 40.782 118.133 38.908 120.304 38.3538Z"/><path fill="#AFD9D2" transform="scale(2.66071 2.66044)" d="M199.136 67.5447C204.953 67.9745 205.238 71.7222 204.666 76.3847C203.012 76.5263 201.448 76.7458 199.806 76.9712C194.069 77.6331 193.666 76.3948 194.589 70.5531C196.109 68.5168 196.659 68.0652 199.136 67.5447Z"/><path fill="#AFD9D2" transform="scale(2.66071 2.66044)" d="M171.48 37.7669C178.138 37.5945 181.086 44.1097 174.373 48.175C168.79 49.4566 164.301 41.9393 171.48 37.7669Z"/><path fill="#AFD9D2" transform="scale(2.66071 2.66044)" d="M103.291 102.046C110.786 93.0291 116.977 106.198 110.553 108.496C109.814 109.085 109.716 108.97 109.452 109.779L106.117 109.696L106.073 108.567C103.133 106.194 103.006 105.935 103.291 102.046Z"/><path fill="#E2F0ED" transform="scale(2.66071 2.66044)" d="M106.073 108.567C107.425 108.612 109.246 108.723 110.553 108.496C109.814 109.085 109.716 108.97 109.452 109.779L106.117 109.696L106.073 108.567Z"/><path fill="#AFD9D2" transform="scale(2.66071 2.66044)" d="M240.355 76.2852C240.042 75.0899 234.375 72.6992 237.475 68.3637C240.987 63.4519 245.448 65.7843 246.903 70.7269C246.484 72.3788 246.308 73.2391 245.525 74.784C243.605 75.8909 241.068 76.4176 240.28 76.9647L239.743 76.9768C240.351 76.5847 240.203 76.843 240.355 76.2852Z"/><path fill="#AFD9D2" transform="scale(2.66071 2.66044)" d="M177.808 28.7879C179.276 29.1423 180.62 29.3516 182.104 29.5916C182.603 30.0705 183.872 31.22 184.143 31.7743C185.741 35.0329 183.491 37.4761 180.894 38.8528C179.006 39.3831 178.25 38.9483 176.388 38.2878C174.253 35.7876 174.433 35.0982 174.565 31.9433C175.606 30.1173 175.967 29.8501 177.808 28.7879Z"/><path fill="#AFD9D2" transform="scale(2.66071 2.66044)" d="M141.698 64.7732C144.155 64.6878 144.52 64.9125 146.719 66.1239C148.75 70.1137 148.769 71.8829 144.765 74.5408C138.551 75.9241 137.377 71.4847 138.667 66.4879C139.842 65.4458 140.224 65.1464 141.698 64.7732Z"/><path fill="#AFD9D2" transform="scale(2.66071 2.66044)" d="M185.755 20.1964C187.867 17.6874 191.195 15.6318 194.134 18.3903C195.211 19.407 195.818 20.8252 195.81 22.3063C195.799 24.2186 194.846 25.8316 192.966 26.4128L192.509 27.1743C191.42 27.1845 190.331 27.2134 189.244 27.2613L188.378 26.3633C185.675 25.2607 185.642 22.71 185.755 20.1964Z"/><path fill="#E2F0ED" transform="scale(2.66071 2.66044)" d="M188.378 26.3633C189.59 26.2589 191.784 26.1368 192.966 26.4128L192.509 27.1743C191.42 27.1845 190.331 27.2134 189.244 27.2613L188.378 26.3633Z"/><path fill="#AFD9D2" transform="scale(2.66071 2.66044)" d="M93.6808 66.5349C92.1661 61.5525 93.2964 60.2207 98.1172 58.743C99.8536 59.2566 100.415 59.3497 101.987 60.2435C102.326 61.2988 102.999 63.1999 103.197 64.2211C102.783 66.1019 102.365 66.817 101.144 68.2877L100.938 68.3444C97.5222 69.2661 96.2238 69.1396 93.6808 66.5349Z"/><path fill="#AFD9D2" transform="scale(2.66071 2.66044)" d="M157.644 49.2979C163.96 49.1776 165.58 56.3363 158.988 59.3989C154.293 59.8845 151.724 55.0578 154.035 51.179C154.868 49.78 156.174 49.5967 157.644 49.2979Z"/><path fill="#AFD9D2" transform="scale(2.66071 2.66044)" d="M27.7335 123.544C28.3948 123.505 29.9433 123.362 30.5175 123.565C35.1487 125.198 36.1984 130.603 31.4227 132.899C30.289 133.12 29.3054 133.276 28.1663 133.04C27.0158 132.795 26.0076 132.108 25.3592 131.126C23.524 128.288 25.0874 125.159 27.7335 123.544Z"/><path fill="#AFD9D2" transform="scale(2.66071 2.66044)" d="M280.269 81.0432C284.099 81.0591 285.357 82.7898 286.092 86.2473C285.647 87.9342 284.453 90.8737 282.417 90.9579C278.182 89.1549 272.177 87.514 277.734 82.0839C278.496 81.3402 279.268 81.2398 280.269 81.0432Z"/><path fill="#AFD9D2" transform="scale(2.66071 2.66044)" d="M187.773 67.8122C190.666 67.6418 191.89 68.6907 193.468 70.9512C193.575 74.3821 193.84 76.2004 190.133 77.5344C185.195 77.8054 184.318 76.3662 183.99 71.6717C184.991 69.4276 185.532 68.7315 187.773 67.8122Z"/><path fill="#AFD9D2" transform="scale(2.66071 2.66044)" d="M206.212 58.1653C202.405 56.2217 200.507 52.0079 204.917 49.3897C206.883 48.2221 211.08 48.4345 211.917 50.8057C213.037 53.9821 212.112 56.3844 208.97 57.6993C207.873 57.8238 207.289 57.887 206.212 58.1653Z"/><path fill="#AFD9D2" transform="scale(2.66071 2.66044)" d="M226.002 40.9588C223.994 42.1291 221.436 41.6891 219.935 39.9153C218.434 38.1415 218.423 35.546 219.909 33.7597C221.396 31.9734 223.95 31.512 225.967 32.6655C227.984 33.8189 228.882 36.2542 228.097 38.4411C227.716 39.5005 226.974 40.3919 226.002 40.9588Z"/><path fill="#AFD9D2" transform="scale(2.66071 2.66044)" d="M79.4811 69.7941C85.3879 69.4224 87.1477 75.7061 81.5159 79.2013C79.7117 79.3377 79.1453 79.1423 77.4639 78.5337C76.8908 77.8709 76.3044 76.9909 75.7886 76.2662C75.6198 72.8306 75.5332 70.6716 79.4811 69.7941Z"/><path fill="#AFD9D2" transform="scale(2.66071 2.66044)" d="M107.794 42.254C112.749 42.6794 114.232 46.3916 111.952 50.5358C110.509 51.2778 110.15 51.3907 108.56 51.7649C102.873 51.8047 101.244 44.8266 107.794 42.254Z"/><path fill="#AFD9D2" transform="scale(2.66071 2.66044)" d="M68.6788 81.3069C72.4933 81.3044 73.0596 82.8952 74.2191 86.0128C73.095 88.8877 72.6324 89.6671 69.9878 91.1863C69.0022 91.2947 68.3147 91.1165 67.4618 90.6146C66.1693 89.8456 65.2513 88.5774 64.9246 87.1094C64.2697 84.2189 65.8004 81.9007 68.6788 81.3069Z"/><path fill="#AFD9D2" transform="scale(2.66071 2.66044)" d="M96.3322 103.264C102.543 103 104.535 110.706 98.4039 112.231C95.8226 112.354 95.6534 112.31 93.4209 111.005C93.3595 110.858 93.3 110.71 93.2423 110.562C91.9483 107.231 92.7703 104.457 96.3322 103.264Z"/><path fill="#AFD9D2" transform="scale(2.66071 2.66044)" d="M56.6653 92.0577C59.2439 91.7301 61.4243 91.8497 62.3877 94.7947C62.8888 96.3732 62.7491 98.0854 61.9987 99.5618C61.3924 100.743 60.875 100.927 59.7099 101.309C53.5686 102.079 51.7195 95.4485 56.6653 92.0577Z"/><path fill="#AFD9D2" transform="scale(2.66071 2.66044)" d="M123.09 75.5271C128.164 75.094 130.437 78.5601 127.896 83.063C127.125 83.5857 126.268 83.9982 125.439 84.4291C119.792 84.988 116.722 78.415 123.09 75.5271Z"/><path fill="#AFD9D2" transform="scale(2.66071 2.66044)" d="M178.148 19.3134C181.614 18.9255 182.539 19.0921 184.49 22.0785C184.684 25.774 184.258 26.3379 181.124 28.1959C179.567 30.3478 170.961 23.4429 178.148 19.3134Z"/><path fill="#AFD9D2" transform="scale(2.66071 2.66044)" d="M39.3222 107.518C41.4643 107.562 43.2856 108.71 44.078 110.733C44.5401 111.902 44.4882 113.211 43.935 114.34C43.1499 115.914 42.0383 116.421 40.4866 116.914C38.3201 116.851 36.4556 116.29 35.5964 114.032C35.1638 112.869 35.2172 111.581 35.7445 110.458C36.5084 108.798 37.6935 108.093 39.3222 107.518Z"/><path fill="#AFD9D2" transform="scale(2.66071 2.66044)" d="M87.7066 109.775C94.4115 109.192 95.5069 116.836 90.0001 118.471C88.2185 118.578 86.3864 118.373 85.3536 116.805C83.2571 113.62 85.4163 111.416 87.7066 109.775Z"/><path fill="#AFD9D2" transform="scale(2.66071 2.66044)" d="M242.352 55.7863C242.924 55.7656 244.469 55.681 244.95 55.8518C247.125 56.6253 248.814 59.1645 248.103 61.4795C247.723 62.7178 246.608 64.1251 245.481 64.7305C243.101 64.9417 241.707 64.9624 240.262 62.7434C239.614 61.7404 239.393 60.521 239.647 59.3547C239.983 57.8425 241.054 56.588 242.352 55.7863Z"/><path fill="#AFD9D2" transform="scale(2.66071 2.66044)" d="M131.829 65.0578C133.484 65.3073 133.892 65.5488 135.328 66.3699C136.155 67.9154 136.342 68.4414 136.779 70.1406C135.527 72.4763 135.001 73.2502 132.628 74.2862C131.134 74.2912 130.402 73.8284 129.063 73.1886C127.101 69.5803 127.211 66.2022 131.829 65.0578Z"/><path fill="#AFD9D2" transform="scale(2.66071 2.66044)" d="M192.639 55.0234C196.394 55.2517 196.881 56.7401 197.852 59.941C196.9 62.1072 196.128 63.0589 194.105 64.1325C191.723 64.3306 190 63.4213 189.231 61.0548C188.805 59.7197 188.946 58.2681 189.621 57.04C190.402 55.6259 191.218 55.4213 192.639 55.0234Z"/><path fill="#AFD9D2" transform="scale(2.66071 2.66044)" d="M209.287 35.5358C213.361 35.299 214.255 36.4246 215.248 40.1984C214.217 42.2738 213.487 43.0496 211.459 44.078C206.915 44.8195 203.269 37.9342 209.287 35.5358Z"/><path fill="#AFD9D2" transform="scale(2.66071 2.66044)" d="M118.646 24.3192C124.666 24.1443 126.301 29.7334 120.83 33.0797C115.06 33.9048 113.73 25.7429 118.646 24.3192Z"/><path fill="#AFD9D2" transform="scale(2.66071 2.66044)" d="M270.538 76.7657C276.619 76.4475 277.757 82.1799 272.697 85.3302C266.998 86.3944 265.08 78.0641 270.538 76.7657Z"/><path fill="#AFD9D2" transform="scale(2.66071 2.66044)" d="M41.1296 127.081C43.5213 127.047 46.347 128.25 47.2349 130.605C47.1748 131.612 47.2986 131.222 46.748 132.083C45.83 132.578 42.6448 133.023 41.4443 133.229C40.2239 133.491 39.0013 133.742 37.7768 133.983C36.9932 134.13 36.466 134.287 35.88 133.89C35.4777 132.504 35.8693 130.116 36.82 128.959C38.0453 127.468 39.3162 127.317 41.1296 127.081Z"/><path fill="#AFD9D2" transform="scale(2.66071 2.66044)" d="M90.6432 51.0257C94.5747 50.7091 95.6797 51.9531 96.755 55.5308C95.7081 57.7478 95.4759 58.1024 93.4161 59.4118C88.9931 61.0543 85.1982 54.4562 90.6432 51.0257Z"/><path fill="#AFD9D2" transform="scale(2.66071 2.66044)" d="M145.245 49.7812C151.54 49.4303 152.802 54.3994 147.93 58.3355C142.687 59.5481 140.11 52.0842 145.245 49.7812Z"/><path fill="#AFD9D2" transform="scale(2.66071 2.66044)" d="M176.67 68.2922C182.756 67.8369 184.697 73.6937 179.908 76.6413C179.337 76.804 178.424 76.9764 177.825 76.9323C176.739 76.8591 175.734 76.3306 175.057 75.477C173.127 73.0152 174.332 69.9824 176.67 68.2922Z"/><path fill="#AFD9D2" transform="scale(2.66071 2.66044)" d="M249.431 46.0148C252.564 46.2512 253.271 48.3245 254.298 50.8024C253.362 52.7134 252.823 53.8524 250.929 54.822C249.912 54.8375 248.61 54.7441 247.57 54.697C245.128 51.4722 244.615 47.1863 249.431 46.0148Z"/><path fill="#AFD9D2" transform="scale(2.66071 2.66044)" d="M109.696 82.7986C113.473 82.5831 113.954 84.0644 115.443 87.0818C114.561 89.1665 114.29 89.7185 112.588 91.2033C106.327 92.304 104.946 85.5379 109.696 82.7986Z"/><path fill="#AFD9D2" transform="scale(2.66071 2.66044)" d="M157.111 34.7911C157.778 34.7335 159.608 34.5768 160.146 34.7955C164.844 36.7045 164.214 40.332 160.396 42.4303C155.482 43.3191 151.948 38.3022 157.111 34.7911Z"/><path fill="#AFD9D2" transform="scale(2.66071 2.66044)" d="M136.1 55.039C138.895 54.842 141.565 56.1895 141.12 59.4943C140.863 61.4081 139.716 62.1264 138.253 63.1821C134.567 63.8022 132.459 60.6492 133.581 57.3108C134.06 55.8878 134.829 55.6224 136.1 55.039Z"/><path fill="#AFD9D2" transform="scale(2.66071 2.66044)" d="M96.5174 42.1527C97.9122 41.7015 99.4418 42.0375 100.519 43.0316C101.596 44.0257 102.054 45.5234 101.716 46.9499C101.378 48.3763 100.298 49.5098 98.8891 49.9152C96.7596 50.528 94.5323 49.3197 93.8848 47.2006C93.2374 45.0814 94.4091 42.8347 96.5174 42.1527Z"/><path fill="#AFD9D2" transform="scale(2.66071 2.66044)" d="M170.16 77.0355C174.866 76.6401 175.112 77.776 176.332 81.8779C175.058 82.6388 173.885 83.25 172.444 83.5986C170.92 84.3064 169.919 85.0658 168.381 84.3029C167.704 83.571 167.459 82.3446 167.169 81.3485C167.785 79.4336 168.463 78.0881 170.16 77.0355Z"/><path fill="#AFD9D2" transform="scale(2.66071 2.66044)" d="M167.888 20.5469C172.642 19.6524 175.151 24.64 170.366 28.3644C168.572 28.6277 166.893 28.3704 165.78 26.761C165.137 25.8142 164.934 24.6354 165.223 23.5278C165.64 21.9033 166.57 21.3053 167.888 20.5469Z"/><path fill="#AFD9D2" transform="scale(2.66071 2.66044)" d="M40.384 97.0829C41.7691 96.6819 43.2626 97.0649 44.2838 98.083C45.305 99.101 45.6927 100.593 45.296 101.98C44.8994 103.366 43.7811 104.427 42.376 104.751C40.2848 105.233 38.1898 103.963 37.6502 101.886C37.1107 99.8088 38.3226 97.6796 40.384 97.0829Z"/><path fill="#AFD9D2" transform="scale(2.66071 2.66044)" d="M199.078 40.5802C201.121 39.7933 203.414 40.8183 204.19 42.8653C204.966 44.9123 203.93 47.2002 201.879 47.9659C199.843 48.7261 197.575 47.6984 196.804 45.6663C196.034 43.6342 197.049 41.3613 199.078 40.5802Z"/><path fill="#AFD9D2" transform="scale(2.66071 2.66044)" d="M81.5713 55.5227C86.8883 55.1088 88.9959 59.5936 84.3068 62.9314C79.6809 64.5566 76.4352 58.255 81.5713 55.5227Z"/><path fill="#AFD9D2" transform="scale(2.66071 2.66044)" d="M213.111 24.772C218.37 24.5085 220.192 29.0931 215.852 32.6199C215.652 32.6334 215.453 32.6445 215.253 32.6532C209.973 32.8692 209.626 28.084 213.111 24.772Z"/><path fill="#AFD9D2" transform="scale(2.66071 2.66044)" d="M160.616 79.6846C162.637 79.2466 164.639 80.4953 165.136 82.5028C165.632 84.5103 164.442 86.5485 162.45 87.1028C161.109 87.476 159.671 87.0906 158.696 86.0968C157.721 85.1029 157.364 83.6578 157.763 82.3242C158.162 80.9906 159.255 79.9795 160.616 79.6846Z"/><path fill="#AFD9D2" transform="scale(2.66071 2.66044)" d="M108.071 28.5572C111.301 28.3541 114.24 29.7244 113.218 33.9529C112.961 35.0156 111.939 35.6245 110.928 36.0105C105.157 36.276 104.663 32.4034 108.071 28.5572Z"/><path fill="#AFD9D2" transform="scale(2.66071 2.66044)" d="M98.2017 88.7396C103.461 88.6852 104.592 94.6505 100.411 96.3341C95.0292 96.7904 93.7616 91.975 98.2017 88.7396Z"/><path fill="#AFD9D2" transform="scale(2.66071 2.66044)" d="M226.403 61.2738C227.725 61.0658 229.055 61.5903 229.879 62.6441C230.703 63.698 230.891 65.1157 230.371 66.348C229.85 67.5804 228.703 68.4339 227.373 68.5779C225.384 68.7933 223.586 67.3824 223.323 65.3992C223.06 63.4159 224.427 61.5848 226.403 61.2738Z"/><path fill="#AFD9D2" transform="scale(2.66071 2.66044)" d="M60.2433 74.2677C64.7664 73.7612 67.2318 78.9274 62.1533 81.4734C56.9314 81.5018 55.6904 77.0402 60.2433 74.2677Z"/><path fill="#AFD9D2" transform="scale(2.66071 2.66044)" d="M272.197 65.9441C273.413 65.3535 274.855 65.4857 275.943 66.2874C277.03 67.0891 277.583 68.4279 277.379 69.7634C277.174 71.099 276.246 72.2108 274.968 72.6501C273.15 73.275 271.161 72.377 270.427 70.6008C269.693 68.8246 270.469 66.7841 272.197 65.9441Z"/><path fill="#AFD9D2" transform="scale(2.66071 2.66044)" d="M72.0281 112.515C73.9544 112.215 75.7712 113.498 76.1338 115.413C76.4964 117.329 75.2741 119.187 73.3715 119.612C72.084 119.899 70.7422 119.463 69.8707 118.472C68.9993 117.482 68.7369 116.095 69.186 114.855C69.6352 113.615 70.7246 112.718 72.0281 112.515Z"/><path fill="#AFD9D2" transform="scale(2.66071 2.66044)" d="M111.775 72.7386C113.026 72.4558 114.332 72.8587 115.207 73.7968C115.799 74.4327 116.142 75.2614 116.172 76.1301C116.234 77.9524 114.926 79.5341 113.124 79.8144C111.205 80.1129 109.394 78.8365 109.03 76.9283C108.666 75.0202 109.88 73.1671 111.775 72.7386Z"/><path fill="#AFD9D2" transform="scale(2.66071 2.66044)" d="M121.61 64.312C126.764 64.9955 126.645 70.2316 122.501 71.1335C116.9 71.0099 116.246 65.5694 121.61 64.312Z"/><path fill="#AFD9D2" transform="scale(2.66071 2.66044)" d="M164.002 69.8266C166.258 69.5812 170.299 69.5978 169.86 73.6792C169.762 74.5943 168.943 75.6359 168.117 76.1225C167.983 76.1593 167.848 76.1936 167.713 76.2253C162.974 77.3163 161.355 73.6403 164.002 69.8266Z"/><path fill="#AFD9D2" transform="scale(2.66071 2.66044)" d="M178.899 55.5405C183.91 54.9871 185.824 58.5898 181.746 62.0461C180.121 62.4565 178.58 62.2159 177.491 60.8025C176.903 60.0373 176.673 59.0557 176.86 58.1086C177.142 56.7312 177.817 56.2097 178.899 55.5405Z"/><path fill="#AFD9D2" transform="scale(2.66071 2.66044)" d="M46.9623 86.0637C49.6034 86.3393 51.8192 87.6223 50.5477 90.7393C49.9739 92.1458 48.8271 92.4173 47.4859 92.945C42.899 92.0104 42.3131 87.3532 46.9623 86.0637Z"/><path fill="#AFD9D2" transform="scale(2.66071 2.66044)" d="M87.6231 96.0206C92.9364 95.9673 94.2734 100.459 90.0394 102.404C85.0564 102.815 83.594 98.3858 87.6231 96.0206Z"/><path fill="#AFD9D2" transform="scale(2.66071 2.66044)" d="M232.726 51.2288C234.046 51.2241 235.187 51.4439 236.113 52.4641C236.766 53.1801 237.072 54.1465 236.95 55.1079C236.759 56.7102 235.989 57.327 234.847 58.2605C232.565 58.7333 232.142 58.056 230.741 56.4399C230.638 53.6631 230.357 53.01 232.726 51.2288Z"/><path fill="#AFD9D2" transform="scale(2.66071 2.66044)" d="M70.3864 59.8014C75.1676 59.1875 77.8886 62.6623 73.7121 65.652C73.2234 65.8266 72.8757 65.9157 72.3489 65.9403C71.3448 65.9924 70.3655 65.6171 69.6533 64.9072C67.8704 63.0978 68.9406 61.2396 70.3864 59.8014Z"/><path fill="#AFD9D2" transform="scale(2.66071 2.66044)" d="M263.067 70.5596C265.679 70.6481 268.162 71.578 267.298 75.1721C267.034 76.2689 266.031 76.7203 265.036 77.1801C263.47 77.2937 262.254 77.0829 261.373 75.5973C260.933 74.8536 260.809 73.9649 261.027 73.1289C261.331 71.9459 262.074 71.1836 263.067 70.5596Z"/><path fill="#AFD9D2" transform="scale(2.66071 2.66044)" d="M143.904 37.4928C144.978 36.973 146.249 37.0765 147.225 37.7633C148.201 38.45 148.728 39.6119 148.601 40.7984C148.474 41.9848 147.714 43.0092 146.615 43.4743C144.974 44.1688 143.079 43.4283 142.343 41.8053C141.607 40.1824 142.3 38.269 143.904 37.4928Z"/><path fill="#AFD9D2" transform="scale(2.66071 2.66044)" d="M216.035 67.1782C218.025 67.436 220.218 69.0978 219.583 71.3369C219.088 73.0824 218.267 73.4384 216.827 74.3063C215.814 74.2651 214.102 73.3871 213.69 72.4874C212.465 69.8181 214.105 68.3654 216.035 67.1782Z"/><path fill="#AFD9D2" transform="scale(2.66071 2.66044)" d="M60.546 118.691C62.1625 118.126 63.9318 118.972 64.5066 120.585C65.0815 122.198 64.2461 123.973 62.6367 124.558C61.0133 125.147 59.2201 124.303 58.6402 122.676C58.0604 121.049 58.9155 119.261 60.546 118.691Z"/><path fill="#AFD9D2" transform="scale(2.66071 2.66044)" d="M242.166 39.2134C243.257 38.9287 244.416 39.2696 245.179 40.0998C245.942 40.9299 246.184 42.1134 245.808 43.1765C245.432 44.2395 244.501 45.0083 243.386 45.1749C241.784 45.4142 240.275 44.3587 239.95 42.7722C239.626 41.1857 240.599 39.6224 242.166 39.2134Z"/><path fill="#AFD9D2" transform="scale(2.66071 2.66044)" d="M81.24 46.0051C83.9889 45.8228 84.5697 47.4332 85.408 49.6412C84.4027 50.7812 84.0243 51.1351 82.8197 52.0618C79.8231 52.8094 77.0986 48.7147 81.24 46.0051Z"/><path fill="#AFD9D2" transform="scale(2.66071 2.66044)" d="M200.632 27.9372C201.621 27.5524 202.742 27.7348 203.558 28.4135C204.375 29.0922 204.759 30.1604 204.561 31.2036C204.364 32.2469 203.616 33.1009 202.608 33.4343C201.104 33.9317 199.477 33.1397 198.941 31.6488C198.405 30.1579 199.155 28.5114 200.632 27.9372Z"/><path fill="#AFD9D2" transform="scale(2.66071 2.66044)" d="M77.1701 99.9784C81.0622 99.9175 82.4078 102.695 79.4473 105.702C75.3662 106.932 74.0709 102.721 77.1701 99.9784Z"/><path fill="#AFD9D2" transform="scale(2.66071 2.66044)" d="M156.484 19.5894C157.926 18.981 159.588 19.6622 160.189 21.1079C160.789 22.5535 160.098 24.2116 158.649 24.8038C157.212 25.3912 155.57 24.7073 154.974 23.2731C154.379 21.839 155.053 20.1931 156.484 19.5894Z"/><path fill="#AFD9D2" transform="scale(2.66071 2.66044)" d="M130.353 45.6199C131.786 45.1437 133.339 45.88 133.877 47.2902C134.415 48.7004 133.747 50.2842 132.361 50.8831C131.41 51.2943 130.31 51.1503 129.496 50.5081C128.682 49.8659 128.287 48.829 128.466 47.8081C128.645 46.7872 129.37 45.9469 130.353 45.6199Z"/><path fill="#AFD9D2" transform="scale(2.66071 2.66044)" d="M155.046 71.4922C158.43 71.4249 160.127 75.1477 156.768 77.2379C152.331 77.4394 152.051 73.525 155.046 71.4922Z"/><path fill="#AFD9D2" transform="scale(2.66071 2.66044)" d="M183.235 42.9122C184.075 42.7413 184.945 42.9939 185.563 43.5879C186.181 44.182 186.468 45.0417 186.33 45.8878C186.158 46.9419 185.362 47.785 184.319 48.016C182.904 48.3295 181.504 47.4291 181.203 46.011C180.902 44.593 181.814 43.2012 183.235 42.9122Z"/><path fill="#AFD9D2" transform="scale(2.66071 2.66044)" d="M146.359 27.3801C147.649 27.0625 148.962 27.8039 149.357 29.0718C149.751 30.3398 149.09 31.6956 147.848 32.1654C146.975 32.4955 145.992 32.3145 145.294 31.6955C144.596 31.0765 144.299 30.1215 144.523 29.2158C144.746 28.3102 145.453 27.6032 146.359 27.3801Z"/><path fill="#AFD9D2" transform="scale(2.66071 2.66044)" d="M168.75 55.8837C170.072 55.6292 171.359 56.4668 171.661 57.7789C171.963 59.091 171.172 60.407 169.872 60.7565C168.988 60.9942 168.045 60.73 167.413 60.0677C166.781 59.4055 166.561 58.4509 166.84 57.5789C167.118 56.7069 167.851 56.0568 168.75 55.8837Z"/><path fill="#AFD9D2" transform="scale(2.66071 2.66044)" d="M50.655 122.245C54.3463 122.124 55.1666 124.407 52.5795 127.018C50.5518 128.008 47.6952 124.608 50.655 122.245Z"/><path fill="#AFD9D2" transform="scale(2.66071 2.66044)" d="M88.4241 83.6726L88.6604 83.6944C90.5607 83.8365 91.0763 84.8373 92.2427 86.221C91.5409 87.119 90.9413 87.6909 90.1322 88.4873C89.9956 88.4976 89.8589 88.5059 89.7221 88.5123C86.5037 88.6609 86.3035 85.7057 88.4241 83.6726Z"/><path fill="#AFD9D2" transform="scale(2.66071 2.66044)" d="M106.117 109.696L109.452 109.779C109.559 110.141 109.554 110.005 109.457 110.369C107.842 110.988 104.276 112.547 102.663 112.299L102.583 111.942C103.851 110.413 104.204 110.249 106.117 109.696Z"/><path fill="#AFD9D2" transform="scale(2.66071 2.66044)" d="M236.613 75.6338C237.7 75.9209 239.213 76.1087 240.355 76.2852C240.203 76.843 240.351 76.5847 239.743 76.9768L233.408 76.902L236.613 75.6338Z"/><path fill="#AFD9D2" transform="scale(2.66071 2.66044)" d="M258.723 81.3385C260.82 81.1543 262.984 81.3304 264.12 83.37C262.867 83.5198 259.655 82.1569 258.723 81.3385Z"/><path fill="#E2F0ED" transform="scale(2.66071 2.66044)" d="M250.23 78.4505C251.365 78.4959 252.83 79.5528 252.969 80.6662L252.374 80.7926C251.466 80.4256 249.767 79.8693 249.203 79.1952L249.355 78.7992L250.23 78.4505Z"/><path fill="#7CB0BA" transform="scale(2.66071 2.66044)" d="M84.0386 120.035L84.2824 120.286C84.0025 120.786 81.5403 121.815 80.8133 122.165L80.444 121.996L80.4626 121.675C81.4569 120.951 82.8699 120.486 84.0386 120.035Z"/><path fill="#E2F0ED" transform="scale(2.66071 2.66044)" d="M59.21 128.307L59.5816 128.344L59.467 128.713C58.6392 129.437 58.3955 129.469 57.3774 129.742C57.022 129.529 57.1492 129.621 56.8992 129.257C57.3595 128.661 58.4079 128.522 59.21 128.307Z"/></svg>