<?xml version="1.0" encoding="utf-8" ?><svg xmlns="http://www.w3.org/2000/svg" xmlns:xlink="http://www.w3.org/1999/xlink" width="1288" height="873" viewBox="0 0 1288 873"><path fill="#23A598" transform="matrix(3.91489 0 0 3.9148 6.10352e-05 0)" d="M146.646 53.0505C148.762 49.3157 161.636 25.1383 163.206 24.286C163.739 23.9968 164.662 23.9948 165.265 23.9808C170.895 23.8495 176.552 24.1336 182.188 24.0871C185.761 24.0575 189.391 23.6466 192.952 23.738C193.83 23.7605 194.623 23.8809 195.467 24.1306C196.713 23.8783 204.64 23.9977 206.273 24.0011L231.05 24.0387L231.669 23.9993C234.227 24.8312 245.372 46.8993 248.153 50.9931L249.489 52.9629C251.422 51.0691 252.398 48.0217 253.991 45.6817C257.739 40.3391 262.793 29.4043 266.279 24.8191C267.242 23.5533 296.62 23.9644 299.68 24.0351C300.575 24.0024 301.351 23.9046 301.951 24.597C303.943 26.8955 305.549 30.4952 307.082 33.1668C309.931 38.0341 312.754 42.9162 315.551 47.8131C315.935 48.4822 318.316 52.6786 318.654 53.0544C318.841 54.1021 318.697 54.6511 318.21 55.6083C313.741 64.397 308.316 72.8358 303.44 81.3829L292.751 100.452C290.536 104.361 288.252 108.521 285.685 112.191C285.435 112.548 285.182 112.903 284.926 113.256C285.052 115.955 315.276 165.722 318.595 173.021C319.234 175.618 314.483 183.045 312.973 185.645L303.495 201.605C302.848 202.674 302.133 203.729 301.305 204.668C298.028 205.128 268.128 205.298 266.266 204.39C265.633 204.209 265.404 203.726 264.999 203.163C262.872 198.905 251.99 177.636 249.253 176.435C245.969 181.753 242.882 186.427 239.793 191.958C238.132 194.934 233.929 202.28 232.057 204.679C229.311 205.114 200.616 205.066 198.472 204.467C195.515 204.284 184.282 178.293 179.582 174.873L179.218 174.93C179.126 174.446 178.862 174.229 178.533 173.853L178.638 172.602L178.034 172.674C176.859 173.744 153.478 173.092 150.132 173.292C149.193 173.348 146.594 173.037 145.669 173.205C142.948 170.603 138.186 160.053 135.601 156.221C134.232 154.192 129.262 145.96 128.57 144.034C127.583 144.146 126.941 144.435 126.169 144.043C120.228 143.822 113.573 143.976 107.586 143.932C103.623 143.904 96.6918 143.756 92.9075 144.146C92.2445 144.077 92.4544 144.196 92.0582 143.765L92.2166 142.952L93.9724 142.998L93.8858 142.675C95.5112 142.019 109.311 116.836 111.94 113.275L111.975 113.052C117.094 103.084 123.426 93.581 128.771 83.2175C132.436 77.4496 135.894 71.0612 139.449 65.1716C141.726 61.3992 143.356 57.3039 146.191 53.7834L146.646 53.0505ZM197.594 86.4759C193.312 91.8379 191.029 96.7687 187.772 102.723C185.913 106.122 183.878 109.28 182.098 112.779C183.26 114.006 185.938 114.005 187.609 114.021C192.694 114.069 197.899 114.088 202.978 114.037C205.667 114.01 210.313 114.176 212.844 113.889L213.746 112.95C213.097 110.261 207.201 102.266 205.808 99.2751C205.052 97.6512 198.926 86.7602 197.886 86.1572L197.594 86.4759Z"/><path fill="#006E60" transform="matrix(3.91489 0 0 3.9148 6.10352e-05 0)" d="M283.582 113.378C283.979 113.382 284.519 113.301 284.926 113.256C285.052 115.955 315.276 165.722 318.595 173.021C319.234 175.618 314.483 183.045 312.973 185.645L303.495 201.605C302.848 202.674 302.133 203.729 301.305 204.668C298.028 205.128 268.128 205.298 266.266 204.39C265.633 204.209 265.404 203.726 264.999 203.163C262.872 198.905 251.99 177.636 249.253 176.435L249.301 176.33C249.322 175.569 249.36 175.373 249.042 174.671C248.298 174.608 248.445 174.715 247.675 175.356L247.381 174.795C247.766 173.873 247.826 173.742 247.691 172.761L248.072 172.219L248.512 172.2C249.622 170.903 251.713 167.088 252.65 165.443L260.545 151.553C261.793 149.355 263.856 145.461 265.292 143.605C264.209 142.194 263.067 140.152 262.133 138.59L262.699 137.49C263.439 138.696 264.763 141.271 265.991 141.605L266.556 141.028L267.394 141.541C267.74 141.106 268.165 140.315 268.456 139.806C273.104 131.665 278.073 123.603 282.517 115.351L282.509 115.144C283.188 114.357 283.035 113.982 283.582 113.378Z"/><path fill="#9725AE" transform="matrix(3.91489 0 0 3.9148 6.10352e-05 0)" d="M283.582 113.378C283.979 113.382 284.519 113.301 284.926 113.256C285.052 115.955 315.276 165.722 318.595 173.021L317.447 174.696C317.229 174.07 317.373 174.172 316.923 173.904C316.845 173.42 300.806 145.976 299.886 145.192C297.094 149.672 286.106 170.634 283.305 173.063L282.553 171.99C281.793 170.555 281 169.1 280.166 167.708C275.383 159.728 271 151.367 266.082 143.479L267.394 141.541C267.74 141.106 268.165 140.315 268.456 139.806C273.104 131.665 278.073 123.603 282.517 115.351L282.509 115.144C283.188 114.357 283.035 113.982 283.582 113.378Z"/><defs><linearGradient id="gradient_0" gradientUnits="userSpaceOnUse" x1="293.5329" y1="146.12665" x2="308.28168" y2="141.67928"><stop offset="0" stop-color="#927299"/><stop offset="1" stop-color="#ABA2B2"/></linearGradient></defs><path fill="url(#gradient_0)" transform="matrix(3.91489 0 0 3.9148 6.10352e-05 0)" d="M283.582 113.378C283.979 113.382 284.519 113.301 284.926 113.256C285.052 115.955 315.276 165.722 318.595 173.021L317.447 174.696C317.229 174.07 317.373 174.172 316.923 173.904C316.845 173.42 300.806 145.976 299.886 145.192C299.821 144.881 299.595 144.381 299.469 144.069C299.121 143.149 297.298 139.622 296.802 138.96C294.618 136.048 284.602 115.983 282.517 115.351L282.509 115.144C283.188 114.357 283.035 113.982 283.582 113.378Z"/><path fill="#C1B6D9" transform="matrix(3.91489 0 0 3.9148 6.10352e-05 0)" d="M299.469 144.069C299.595 144.381 299.821 144.881 299.886 145.192C297.094 149.672 286.106 170.634 283.305 173.063L282.553 171.99C287.141 166.788 291.14 157.194 294.885 151.035C296.418 148.513 297.41 146.373 299.469 144.069Z"/><path fill="#9725AE" transform="matrix(3.91489 0 0 3.9148 6.10352e-05 0)" d="M299.886 145.192C300.806 145.976 316.845 173.42 316.923 173.904C314.735 176.851 312.973 180.405 311.131 183.603C307.453 189.941 303.842 196.317 300.298 202.731C298.16 199.79 293.886 191.381 291.793 187.744C289.929 184.527 288.045 181.322 286.141 178.129C285.462 176.982 283.705 174.187 283.305 173.063C286.106 170.634 297.094 149.672 299.886 145.192Z"/><path fill="#DEDADD" transform="matrix(3.91489 0 0 3.9148 6.10352e-05 0)" d="M262.699 137.49C263.439 138.696 264.763 141.271 265.991 141.605L266.556 141.028L267.394 141.541L266.082 143.479C271 151.367 275.383 159.728 280.166 167.708C281 169.1 281.793 170.555 282.553 171.99L283.305 173.063C283.705 174.187 285.462 176.982 286.141 178.129C288.045 181.322 289.929 184.527 291.793 187.744C293.886 191.381 298.16 199.79 300.298 202.731C303.842 196.317 307.453 189.941 311.131 183.603C312.973 180.405 314.735 176.851 316.923 173.904C317.373 174.172 317.229 174.07 317.447 174.696L318.595 173.021C319.234 175.618 314.483 183.045 312.973 185.645L303.495 201.605C302.848 202.674 302.133 203.729 301.305 204.668C298.028 205.128 268.128 205.298 266.266 204.39C265.633 204.209 265.404 203.726 264.999 203.163C276.385 202.981 287.773 202.946 299.159 203.058C296.984 198.568 294.484 194.615 291.986 190.318L282.629 174.028C272.295 174.643 261.626 173.987 251.274 174.121C250.642 174.129 250.533 174.104 250.011 174.436C250.107 175.528 250.317 175.858 249.301 176.33C249.322 175.569 249.36 175.373 249.042 174.671C248.298 174.608 248.445 174.715 247.675 175.356L247.381 174.795C247.766 173.873 247.826 173.742 247.691 172.761L248.072 172.219L248.512 172.2C249.622 170.903 251.713 167.088 252.65 165.443L260.545 151.553C261.793 149.355 263.856 145.461 265.292 143.605C264.209 142.194 263.067 140.152 262.133 138.59L262.699 137.49Z"/><path fill="#030303" transform="matrix(3.91489 0 0 3.9148 6.10352e-05 0)" d="M318.595 173.021C319.234 175.618 314.483 183.045 312.973 185.645L303.495 201.605C302.848 202.674 302.133 203.729 301.305 204.668C298.028 205.128 268.128 205.298 266.266 204.39C268.729 203.322 295.835 203.908 300.512 203.82C301.674 202.282 303.35 199.058 304.4 197.286C308.951 189.604 312.481 182.168 317.447 174.696L318.595 173.021Z"/><path fill="#006E60" transform="matrix(3.91489 0 0 3.9148 6.10352e-05 0)" d="M265.617 144.454C265.994 144.845 268.983 150.223 269.452 151.051L277.347 164.872C278.762 167.336 280.541 170.626 282.095 172.9C277.212 173.2 271.321 173.056 266.375 173.056C260.8 173.074 255.216 173.12 249.655 172.722C254.478 163.22 260.634 153.809 265.617 144.454Z"/><path fill="#9725AE" transform="matrix(3.91489 0 0 3.9148 6.10352e-05 0)" d="M196.146 143.491C201.906 144.986 228.514 142.781 230.956 144.751L231.247 144.58C232.164 145.459 233.81 148.874 234.548 150.044C237.119 154.12 244.902 170.007 247.691 172.761C247.826 173.742 247.766 173.873 247.381 174.795L247.675 175.356C248.445 174.715 248.298 174.608 249.042 174.671C249.36 175.373 249.322 175.569 249.301 176.33L249.253 176.435C245.969 181.753 242.882 186.427 239.793 191.958C238.132 194.934 233.929 202.28 232.057 204.679C229.311 205.114 200.616 205.066 198.472 204.467C195.515 204.284 184.282 178.293 179.582 174.873L179.218 174.93C179.126 174.446 178.862 174.229 178.533 173.853L178.638 172.602L178.818 172.232C176.487 166.003 170.681 157.335 167.403 151.387C166.204 149.213 164.061 146.215 163.215 144.001C171.104 143.976 178.965 144.253 186.847 144.018C189.272 143.946 193.25 144.137 195.504 143.932L196.146 143.491Z"/><path fill="#EA7EFA" transform="matrix(3.91489 0 0 3.9148 6.10352e-05 0)" d="M196.146 143.491C201.906 144.986 228.514 142.781 230.956 144.751C229.432 147.595 215.302 172.763 214.445 173.324L213.141 173.852C208.439 175.798 191.619 173.47 185.859 174.206C184.541 174.375 180.171 173.701 179.582 174.873L179.218 174.93C179.126 174.446 178.862 174.229 178.533 173.853L178.638 172.602L178.818 172.232C176.487 166.003 170.681 157.335 167.403 151.387C166.204 149.213 164.061 146.215 163.215 144.001C171.104 143.976 178.965 144.253 186.847 144.018C189.272 143.946 193.25 144.137 195.504 143.932L196.146 143.491Z"/><path fill="#006E60" transform="matrix(3.91489 0 0 3.9148 6.10352e-05 0)" d="M163.215 144.001C171.104 143.976 178.965 144.253 186.847 144.018C189.272 143.946 193.25 144.137 195.504 143.932C195.061 145.074 191.29 151.332 190.481 152.681C186.698 158.988 183.085 166.357 178.818 172.232C176.487 166.003 170.681 157.335 167.403 151.387C166.204 149.213 164.061 146.215 163.215 144.001Z"/><path fill="#9725AE" transform="matrix(3.91489 0 0 3.9148 6.10352e-05 0)" d="M230.956 144.751L231.247 144.58C232.164 145.459 233.81 148.874 234.548 150.044C237.119 154.12 244.902 170.007 247.691 172.761C247.826 173.742 247.766 173.873 247.381 174.795C244.57 178.403 232.339 201.5 231.39 202.099L231.079 202.107C230.862 201.369 227.447 195.896 226.75 194.731C224.117 190.29 221.521 185.828 218.961 181.345C217.585 178.954 215.599 175.719 214.445 173.324C215.302 172.763 229.432 147.595 230.956 144.751Z"/><path fill="#030303" transform="matrix(3.91489 0 0 3.9148 6.10352e-05 0)" d="M231.079 202.107L231.39 202.099C232.339 201.5 244.57 178.403 247.381 174.795L247.675 175.356C248.445 174.715 248.298 174.608 249.042 174.671C249.36 175.373 249.322 175.569 249.301 176.33L249.253 176.435C245.969 181.753 242.882 186.427 239.793 191.958C238.132 194.934 233.929 202.28 232.057 204.679C229.311 205.114 200.616 205.066 198.472 204.467C200.271 202.911 225.091 204.369 229.859 203.788C230.358 203.804 231.113 203.662 231.627 203.585L230.969 202.625L231.079 202.107Z"/><path fill="#A687B1" transform="matrix(3.91489 0 0 3.9148 6.10352e-05 0)" d="M231.079 202.107L231.39 202.099C232.339 201.5 244.57 178.403 247.381 174.795L247.675 175.356C246.875 177.226 244.951 180.345 243.874 182.17C241.699 185.825 239.547 189.494 237.418 193.176C236.016 195.613 232.865 201.857 231.627 203.585L230.969 202.625L231.079 202.107Z"/><path fill="#C1B6D9" transform="matrix(3.91489 0 0 3.9148 6.10352e-05 0)" d="M213.141 173.852L214.445 173.324C215.599 175.719 217.585 178.954 218.961 181.345C221.521 185.828 224.117 190.29 226.75 194.731C227.447 195.896 230.862 201.369 231.079 202.107L230.969 202.625L231.627 203.585C231.113 203.662 230.358 203.804 229.859 203.788C229.59 203.78 226.228 203.505 226.378 203.486C227.428 203.3 229.182 203.304 230.297 203.272C229.285 201.86 227.726 198.802 226.761 197.147C224.391 193.157 222.058 189.145 219.762 185.113C217.701 181.443 215.538 177.253 213.141 173.852Z"/><path fill="#9725AE" transform="matrix(3.91489 0 0 3.9148 6.10352e-05 0)" d="M299.68 24.0351C300.575 24.0024 301.351 23.9046 301.951 24.597C303.943 26.8955 305.549 30.4952 307.082 33.1668C309.931 38.0341 312.754 42.9162 315.551 47.8131C315.935 48.4822 318.316 52.6786 318.654 53.0544C318.841 54.1021 318.697 54.6511 318.21 55.6083C313.741 64.397 308.316 72.8358 303.44 81.3829L292.751 100.452C290.536 104.361 288.252 108.521 285.685 112.191C285.435 112.548 285.182 112.903 284.926 113.256C284.519 113.301 283.979 113.382 283.582 113.378C283.035 113.982 283.188 114.357 282.509 115.144L282.065 114.154C282.315 113.454 282.288 113.758 282.101 112.976C282.499 112.493 282.592 112.414 282.645 111.798C277.838 103.508 273.087 94.8613 268.225 86.7098C267.629 85.5709 266.434 84.3576 266.501 83.2549C267.889 82.0745 281.207 57.8511 282.769 54.8961L282.696 54.6295C283.022 54.4852 283.268 54.0913 283.497 53.7935L283.531 53.5795C285.399 51.4513 299.553 26.4098 299.824 24.3036L299.68 24.0351Z"/><path fill="#9725AE" transform="matrix(3.91489 0 0 3.9148 6.10352e-05 0)" d="M282.769 54.8961C288.778 63.3893 293.558 74.3506 299.461 83.0169C299.254 84.7838 284.482 110.859 282.645 111.798C277.838 103.508 273.087 94.8613 268.225 86.7098C267.629 85.5709 266.434 84.3576 266.501 83.2549C267.889 82.0745 281.207 57.8511 282.769 54.8961Z"/><path fill="#030303" transform="matrix(3.91489 0 0 3.9148 6.10352e-05 0)" d="M317.027 53.4709C317.27 53.647 317.543 53.8033 317.686 54.0556L318.654 53.0544C318.841 54.1021 318.697 54.6511 318.21 55.6083C313.741 64.397 308.316 72.8358 303.44 81.3829L292.751 100.452C290.536 104.361 288.252 108.521 285.685 112.191C285.435 112.548 285.182 112.903 284.926 113.256C284.519 113.301 283.979 113.382 283.582 113.378C283.035 113.982 283.188 114.357 282.509 115.144L282.065 114.154C282.315 113.454 282.288 113.758 282.101 112.976C282.499 112.493 282.592 112.414 282.645 111.798C284.482 110.859 299.254 84.7838 299.461 83.0169C300.172 82.5663 299.972 82.835 300.199 82.0029L300.452 81.9371C301.188 81.2631 306.384 72.0656 307.083 70.6712C310.002 64.8423 314.062 59.143 317.027 53.4709Z"/><path fill="#A687B1" transform="matrix(3.91489 0 0 3.9148 6.10352e-05 0)" d="M317.027 53.4709C317.27 53.647 317.543 53.8033 317.686 54.0556C306.204 73.7637 294.836 93.5381 283.582 113.378C283.035 113.982 283.188 114.357 282.509 115.144L282.065 114.154C282.315 113.454 282.288 113.758 282.101 112.976C282.499 112.493 282.592 112.414 282.645 111.798C284.482 110.859 299.254 84.7838 299.461 83.0169C300.172 82.5663 299.972 82.835 300.199 82.0029L300.452 81.9371C301.188 81.2631 306.384 72.0656 307.083 70.6712C310.002 64.8423 314.062 59.143 317.027 53.4709Z"/><path fill="#837685" transform="matrix(3.91489 0 0 3.9148 6.10352e-05 0)" d="M299.68 24.0351C300.575 24.0024 301.351 23.9046 301.951 24.597C303.943 26.8955 305.549 30.4952 307.082 33.1668C309.931 38.0341 312.754 42.9162 315.551 47.8131C315.935 48.4822 318.316 52.6786 318.654 53.0544L317.686 54.0556C317.543 53.8033 317.27 53.647 317.027 53.4709C315.768 52.057 309.111 40.2387 307.827 38.0325L302.378 28.6726C301.641 27.4122 300.392 25.5121 299.824 24.3036L299.68 24.0351Z"/><path fill="#C1B6D9" transform="matrix(3.91489 0 0 3.9148 6.10352e-05 0)" d="M282.696 54.6295C283.022 54.4852 283.268 54.0913 283.497 53.7935C284.829 55.601 285.906 57.449 287.077 59.3563C291.616 66.7479 295.631 74.652 300.199 82.0029C299.972 82.835 300.172 82.5663 299.461 83.0169C293.558 74.3506 288.778 63.3893 282.769 54.8961L282.696 54.6295Z"/><path fill="#EA7EFA" transform="matrix(3.91489 0 0 3.9148 6.10352e-05 0)" d="M247.242 112.954L248.111 114.185L248.402 114.528C252.941 121.88 257.587 130.885 262.133 138.59C263.067 140.152 264.209 142.194 265.292 143.605C263.856 145.461 261.793 149.355 260.545 151.553L252.65 165.443C251.713 167.088 249.622 170.903 248.512 172.2L248.072 172.219L247.691 172.761C244.902 170.007 237.119 154.12 234.548 150.044C233.81 148.874 232.164 145.459 231.247 144.58L230.956 144.751C228.514 142.781 201.906 144.986 196.146 143.491L196.053 143.144L196.54 142.646C197.554 141.076 198.477 139.477 199.374 137.84C203.554 130.21 208.022 122.756 212.417 115.252C212.642 114.87 212.768 114.325 212.844 113.889L213.746 112.95C223.587 113.483 233.603 112.787 243.467 113.04C244.706 113.072 246.007 113.049 247.242 112.954Z"/><path fill="#9725AE" transform="matrix(3.91489 0 0 3.9148 6.10352e-05 0)" d="M248.402 114.528C252.941 121.88 257.587 130.885 262.133 138.59C263.067 140.152 264.209 142.194 265.292 143.605C263.856 145.461 261.793 149.355 260.545 151.553L252.65 165.443C251.713 167.088 249.622 170.903 248.512 172.2C247.447 171.356 244.576 165.763 243.655 164.12C241.324 160.017 238.967 155.928 236.585 151.854C235.145 149.388 233.171 145.795 231.456 143.664C232.553 142.415 236.759 134.996 237.818 133.099C241.24 126.967 245.133 120.7 248.402 114.528Z"/><path fill="#C1B6D9" transform="matrix(3.91489 0 0 3.9148 6.10352e-05 0)" d="M196.54 142.646C199.532 144.21 228.746 142.079 231.456 143.664C233.171 145.795 235.145 149.388 236.585 151.854C238.967 155.928 241.324 160.017 243.655 164.12C244.576 165.763 247.447 171.356 248.512 172.2L248.072 172.219L247.691 172.761C244.902 170.007 237.119 154.12 234.548 150.044C233.81 148.874 232.164 145.459 231.247 144.58L230.956 144.751C228.514 142.781 201.906 144.986 196.146 143.491L196.053 143.144L196.54 142.646Z"/><path fill="#5D95F6" transform="matrix(3.91489 0 0 3.9148 6.10352e-05 0)" d="M146.646 53.0505C148.762 49.3157 161.636 25.1383 163.206 24.286C163.739 23.9968 164.662 23.9948 165.265 23.9808C170.895 23.8495 176.552 24.1336 182.188 24.0871C185.761 24.0575 189.391 23.6466 192.952 23.738C193.83 23.7605 194.623 23.8809 195.467 24.1306C192.579 30.8303 186.994 39.0134 183.506 45.5661C182.859 46.7798 179.846 51.6092 179.619 52.5622L179.424 53.5831C178.845 54.0233 178.442 54.1471 178.313 54.7162C177.104 59.1002 172.88 65.6235 170.556 69.733C167.877 74.4697 165.059 79.2993 162.203 83.9259L161.729 84.4355L161.328 84.2424C159.9 83.7804 156.104 83.9648 153.388 83.915C145.779 83.7756 136.968 84.2879 129.356 83.7704C129.115 83.5432 128.92 83.3589 128.771 83.2175C132.436 77.4496 135.894 71.0612 139.449 65.1716C141.726 61.3992 143.356 57.3039 146.191 53.7834L146.646 53.0505Z"/><path fill="#5D95F6" transform="matrix(3.91489 0 0 3.9148 6.10352e-05 0)" d="M146.646 53.0505C148.762 49.3157 161.636 25.1383 163.206 24.286C163.739 23.9968 164.662 23.9948 165.265 23.9808C170.895 23.8495 176.552 24.1336 182.188 24.0871C185.761 24.0575 189.391 23.6466 192.952 23.738C193.83 23.7605 194.623 23.8809 195.467 24.1306C192.579 30.8303 186.994 39.0134 183.506 45.5661C182.859 46.7798 179.846 51.6092 179.619 52.5622C179.433 52.7134 179.207 52.8971 178.941 53.1133C169.803 52.7095 155.064 53.3784 146.646 53.0505Z"/><path fill="#E6E2FC" transform="matrix(3.91489 0 0 3.9148 6.10352e-05 0)" d="M179.619 52.5622L179.424 53.5831C178.845 54.0233 178.442 54.1471 178.313 54.7162C177.104 59.1002 172.88 65.6235 170.556 69.733C167.877 74.4697 165.059 79.2993 162.203 83.9259L161.729 84.4355L161.328 84.2424C159.9 83.7804 156.104 83.9648 153.388 83.915C145.779 83.7756 136.968 84.2879 129.356 83.7704C129.115 83.5432 128.92 83.3589 128.771 83.2175C130.637 82.9931 136.151 83.1635 138.261 83.1428C146.01 83.067 153.783 83.3813 161.533 83.0513C163.086 80.6636 165.238 76.5262 166.753 73.9181C170.577 67.4671 174.312 60.964 177.957 54.4108C175.104 53.0847 151.361 54.8394 146.191 53.7834L146.646 53.0505C155.064 53.3784 169.803 52.7095 178.941 53.1133C179.207 52.8971 179.433 52.7134 179.619 52.5622Z"/><path fill="#9725AE" transform="matrix(3.91489 0 0 3.9148 6.10352e-05 0)" d="M264.569 83.0175L264.998 83.3186L265.155 83.2904C265.753 83.188 265.873 83.1678 266.501 83.2549C266.434 84.3576 267.629 85.5709 268.225 86.7098C273.087 94.8613 277.838 103.508 282.645 111.798C282.592 112.414 282.499 112.493 282.101 112.976C282.288 113.758 282.315 113.454 282.065 114.154L282.509 115.144L282.517 115.351C278.073 123.603 273.104 131.665 268.456 139.806C268.165 140.315 267.74 141.106 267.394 141.541L266.556 141.028L265.991 141.605C264.763 141.271 263.439 138.696 262.699 137.49L262.133 138.59C257.587 130.885 252.941 121.88 248.402 114.528L248.111 114.185L248.79 113.221L248.403 112.557C253.049 103.435 259.07 94.4355 263.958 85.4074C264.464 84.474 264.727 84.111 264.569 83.0175Z"/><path fill="#C1B6D9" transform="matrix(3.91489 0 0 3.9148 6.10352e-05 0)" d="M264.569 83.0175L264.998 83.3186L265.155 83.2904C265.753 83.188 265.873 83.1678 266.501 83.2549C266.434 84.3576 267.629 85.5709 268.225 86.7098L267.374 87.6559C266.88 86.918 266.154 85.7555 265.595 85.1145C260.955 91.6631 257.292 99.9612 252.929 106.826C251.605 108.908 250.395 111.248 248.884 113.229L248.79 113.221L248.403 112.557C253.049 103.435 259.07 94.4355 263.958 85.4074C264.464 84.474 264.727 84.111 264.569 83.0175Z"/><path fill="#C1B6D9" transform="matrix(3.91489 0 0 3.9148 6.10352e-05 0)" d="M282.065 114.154L282.509 115.144L282.517 115.351C278.073 123.603 273.104 131.665 268.456 139.806C268.165 140.315 267.74 141.106 267.394 141.541L266.556 141.028C267.042 139.013 280.707 115.907 282.065 114.154Z"/><path fill="#C1B6D9" transform="matrix(3.91489 0 0 3.9148 6.10352e-05 0)" d="M248.79 113.221L248.884 113.229C249.238 114.262 251.077 116.786 251.729 117.979C253.793 121.758 261.686 134.022 262.699 137.49L262.133 138.59C257.587 130.885 252.941 121.88 248.402 114.528L248.111 114.185L248.79 113.221Z"/><path fill="#C1B6D9" transform="matrix(3.91489 0 0 3.9148 6.10352e-05 0)" d="M268.225 86.7098C273.087 94.8613 277.838 103.508 282.645 111.798C282.592 112.414 282.499 112.493 282.101 112.976C280.949 111.565 277.862 106.063 276.879 104.347L267.374 87.6559L268.225 86.7098Z"/><path fill="#EA7EFA" transform="matrix(3.91489 0 0 3.9148 6.10352e-05 0)" d="M195.467 24.1306C196.713 23.8783 204.64 23.9977 206.273 24.0011L231.05 24.0387L231.242 24.4898C230.911 25.2633 229.697 27.4341 229.262 28.0327C227.011 31.1276 215.911 52.4964 214.413 53.2534C214.035 53.4745 213.688 53.6324 213.419 53.971L213.209 54.0233C211.98 53.8575 209.993 53.9709 208.693 54.0078C206.405 53.8383 201.956 53.9869 199.412 53.9882L180.308 53.9994L179.424 53.5831L179.619 52.5622C179.846 51.6092 182.859 46.7798 183.506 45.5661C186.994 39.0134 192.579 30.8303 195.467 24.1306Z"/><path fill="#9725AE" transform="matrix(3.91489 0 0 3.9148 6.10352e-05 0)" d="M231.05 24.0387L231.669 23.9993C234.227 24.8312 245.372 46.8993 248.153 50.9931L246.983 51.9795L247.451 52.4056C247.69 53.0403 247.975 53.3875 247.63 53.9346C246.089 56.3751 244.58 58.8842 243.141 61.373C239.087 68.308 235.12 75.2927 231.239 82.3257C229.348 80.2186 215.661 56.5043 214.413 53.2534C215.911 52.4964 227.011 31.1276 229.262 28.0327C229.697 27.4341 230.911 25.2633 231.242 24.4898L231.05 24.0387Z"/><path fill="#7B757C" transform="matrix(3.91489 0 0 3.9148 6.10352e-05 0)" d="M231.669 23.9993C234.227 24.8312 245.372 46.8993 248.153 50.9931L246.983 51.9795C243.849 47.8076 241.95 43.6925 239.419 39.2185C236.326 33.7499 233.959 29.8804 231.669 23.9993Z"/><path fill="#23A598" transform="matrix(3.91489 0 0 3.9148 6.10352e-05 0)" d="M181.127 113.311L182.098 112.779C183.26 114.006 185.938 114.005 187.609 114.021C192.694 114.069 197.899 114.088 202.978 114.037C205.667 114.01 210.313 114.176 212.844 113.889C212.768 114.325 212.642 114.87 212.417 115.252C208.022 122.756 203.554 130.21 199.374 137.84C198.477 139.477 197.554 141.076 196.54 142.646L196.053 143.144C194.511 142.855 186.76 142.991 184.916 143C177.589 143.058 170.262 143.04 162.936 142.948L162.016 142.642C162.693 140.85 165.093 136.763 166.085 135.036L174.28 121.007C175.189 119.45 177.484 115.647 177.955 114.001L179.142 114.177C179.897 113.893 180.832 113.903 181.544 113.424L181.127 113.311Z"/><path fill="#9CBCB4" transform="matrix(3.91489 0 0 3.9148 6.10352e-05 0)" d="M177.955 114.001L179.142 114.177C177.638 117.942 174.669 122.933 172.6 126.544C169.47 132.065 166.248 137.534 162.936 142.948L162.016 142.642C162.693 140.85 165.093 136.763 166.085 135.036L174.28 121.007C175.189 119.45 177.484 115.647 177.955 114.001Z"/><path fill="#006E60" transform="matrix(3.91489 0 0 3.9148 6.10352e-05 0)" d="M161.936 144.062L163.215 144.001C164.061 146.215 166.204 149.213 167.403 151.387C170.681 157.335 176.487 166.003 178.818 172.232L178.638 172.602L178.034 172.674C176.859 173.744 153.478 173.092 150.132 173.292C149.193 173.348 146.594 173.037 145.669 173.205C142.948 170.603 138.186 160.053 135.601 156.221C134.232 154.192 129.262 145.96 128.57 144.034C138.729 144.161 148.891 143.882 159.05 143.96C160.016 143.968 160.973 143.977 161.936 144.062Z"/><path fill="#B3B6B5" transform="matrix(3.91489 0 0 3.9148 6.10352e-05 0)" d="M161.936 144.062L163.215 144.001C164.061 146.215 166.204 149.213 167.403 151.387C170.681 157.335 176.487 166.003 178.818 172.232L178.638 172.602L178.034 172.674C176.048 170.066 162.63 146.769 161.936 144.062Z"/><path fill="#006E60" transform="matrix(3.91489 0 0 3.9148 6.10352e-05 0)" d="M179.424 53.5831L180.308 53.9994C180.964 56.5832 185.76 62.5053 186.993 65.2058C188.134 67.7046 196.243 80.1141 196.455 82.1757C195.743 82.8284 195.936 82.5176 195.764 83.5114C190.24 92.9652 184.914 102.597 178.931 111.759C177.816 111.032 166.11 86.3841 162.203 83.9259C165.059 79.2993 167.877 74.4697 170.556 69.733C172.88 65.6235 177.104 59.1002 178.313 54.7162C178.442 54.1471 178.845 54.0233 179.424 53.5831Z"/><path fill="#B3B6B5" transform="matrix(3.91489 0 0 3.9148 6.10352e-05 0)" d="M179.424 53.5831L180.308 53.9994C180.964 56.5832 185.76 62.5053 186.993 65.2058C188.134 67.7046 196.243 80.1141 196.455 82.1757C195.743 82.8284 195.936 82.5176 195.764 83.5114C195.001 81.9091 191.702 76.6979 190.578 75.0164C187.091 69.7989 182.805 59.0626 178.796 54.641L178.313 54.7162C178.442 54.1471 178.845 54.0233 179.424 53.5831Z"/><path fill="#5D95F6" transform="matrix(3.91489 0 0 3.9148 6.10352e-05 0)" d="M128.771 83.2175C128.92 83.3589 129.115 83.5432 129.356 83.7704C136.968 84.2879 145.779 83.7756 153.388 83.915C156.104 83.9648 159.9 83.7804 161.328 84.2424L160.808 84.7358L160.988 85.8081C160.138 88.2111 155.94 95.3137 154.442 97.9418L153.279 97.6873C151.073 101.103 149.174 104.748 147.164 108.275C146.617 109.234 144.836 112.517 144.256 113.217C143.849 113.589 143.807 113.648 143.314 113.877C142.993 113.914 142.612 113.966 142.282 113.969C132.383 114.051 122.398 114.389 112.52 113.813C112.52 113.813 111.996 113.327 111.94 113.275L111.975 113.052C117.094 103.084 123.426 93.581 128.771 83.2175Z"/><path fill="#E6E2FC" transform="matrix(3.91489 0 0 3.9148 6.10352e-05 0)" d="M111.975 113.052C119.239 113.306 127.378 112.914 134.716 113.144C137.001 113.215 142.483 112.918 144.256 113.217C143.849 113.589 143.807 113.648 143.314 113.877C142.993 113.914 142.612 113.966 142.282 113.969C132.383 114.051 122.398 114.389 112.52 113.813C112.52 113.813 111.996 113.327 111.94 113.275L111.975 113.052Z"/><path fill="#DEDADD" transform="matrix(3.91489 0 0 3.9148 6.10352e-05 0)" d="M153.279 97.6873C154.268 95.593 159.604 86.2208 160.808 84.7358L160.988 85.8081C160.138 88.2111 155.94 95.3137 154.442 97.9418L153.279 97.6873Z"/><path fill="#EA7EFA" transform="matrix(3.91489 0 0 3.9148 6.10352e-05 0)" d="M249.489 52.9629C251.422 51.0691 252.398 48.0217 253.991 45.6817C257.739 40.3391 262.793 29.4043 266.279 24.8191C267.242 23.5533 296.62 23.9644 299.68 24.0351L299.824 24.3036C299.553 26.4098 285.399 51.4513 283.531 53.5795C281.379 52.5223 260.65 53.208 256.892 53.0771C255.383 53.0245 250.667 53.5241 249.489 52.9629Z"/><path fill="#006E60" transform="matrix(3.91489 0 0 3.9148 6.10352e-05 0)" d="M197.886 86.1572C198.557 85.057 197.417 85.1375 198.154 84.1172C200.042 83.7766 206.902 83.8222 209.29 83.8308C216.325 83.8562 223.69 83.6901 230.699 83.9246C234.036 89.2205 237.311 95.1778 240.441 100.649C242.436 104.136 245.58 109.387 247.242 112.954C246.007 113.049 244.706 113.072 243.467 113.04C233.603 112.787 223.587 113.483 213.746 112.95C213.097 110.261 207.201 102.266 205.808 99.2751C205.052 97.6512 198.926 86.7602 197.886 86.1572Z"/><path fill="#9725AE" transform="matrix(3.91489 0 0 3.9148 6.10352e-05 0)" d="M248.483 54.344C252.861 62.759 257.549 70.8284 262.307 79.031C262.762 79.8152 264.118 82.5391 264.569 83.0175C264.727 84.111 264.464 84.474 263.958 85.4074C259.07 94.4355 253.049 103.435 248.403 112.557C247.91 111.53 247.388 110.622 246.777 109.662C242.836 103.466 239.377 97.0042 235.547 90.7375C234.257 88.6281 232.242 85.5281 231.608 83.2428C231.699 82.3647 234.513 78.7373 235.162 77.5788C239.496 69.8396 243.728 61.8286 248.483 54.344Z"/><path fill="#006E60" transform="matrix(3.91489 0 0 3.9148 6.10352e-05 0)" d="M208.693 54.0078C209.993 53.9709 211.98 53.8575 213.209 54.0233L213.419 53.971C219.163 62.1709 224.625 74.2438 230.298 82.9865C219.699 82.5397 209.023 82.9476 198.418 82.8942C197.726 82.8908 196.955 82.6746 196.455 82.1757C196.243 80.1141 188.134 67.7046 186.993 65.2058C185.76 62.5053 180.964 56.5832 180.308 53.9994L199.412 53.9882C201.956 53.9869 206.405 53.8383 208.693 54.0078Z"/><path fill="#007056" transform="matrix(3.91489 0 0 3.9148 6.10352e-05 0)" d="M208.693 54.0078C209.993 53.9709 211.98 53.8575 213.209 54.0233C213.111 54.3489 212.939 54.4341 212.67 54.6465C211.192 54.8863 210.077 54.5231 208.693 54.0078Z"/><path fill="#5D95F6" transform="matrix(3.91489 0 0 3.9148 6.10352e-05 0)" d="M93.8858 142.675C95.5112 142.019 109.311 116.836 111.94 113.275C111.996 113.327 112.52 113.813 112.52 113.813C122.398 114.389 132.383 114.051 142.282 113.969C142.612 113.966 142.993 113.914 143.314 113.877L143.501 114.376C140.236 120.429 136.564 126.315 133.176 132.285C131.601 135.059 128.065 140.621 127.322 143.402C124.331 142.71 119.884 143.055 116.738 142.965C109.475 142.757 101.16 143.339 93.9724 142.998L93.8858 142.675Z"/><path fill="#EA7EFA" transform="matrix(3.91489 0 0 3.9148 6.10352e-05 0)" d="M248.483 54.344C250.285 53.5572 280.824 53.7122 282.696 54.6295L282.769 54.8961C281.207 57.8511 267.889 82.0745 266.501 83.2549C265.873 83.1678 265.753 83.188 265.155 83.2904L264.998 83.3186L264.569 83.0175C264.118 82.5391 262.762 79.8152 262.307 79.031C257.549 70.8284 252.861 62.759 248.483 54.344Z"/><path fill="#006E60" transform="matrix(3.91489 0 0 3.9148 6.10352e-05 0)" d="M161.328 84.2424L161.729 84.4355L162.203 83.9259C166.11 86.3841 177.816 111.032 178.931 111.759L178.737 112.231C178.393 112.356 178.034 112.441 177.782 112.677C176.63 113.215 149.015 112.968 145.726 112.969L154.442 97.9418C155.94 95.3137 160.138 88.2111 160.988 85.8081L160.808 84.7358L161.328 84.2424Z"/><path fill="#B3B6B5" transform="matrix(3.91489 0 0 3.9148 6.10352e-05 0)" d="M161.328 84.2424L161.729 84.4355L162.203 83.9259C166.11 86.3841 177.816 111.032 178.931 111.759L178.737 112.231C178.393 112.356 178.034 112.441 177.782 112.677C174.322 106.458 170.82 100.263 167.277 94.0913C165.934 91.7589 163.254 86.817 161.773 84.9586L161.46 84.9282L160.988 85.8081L160.808 84.7358L161.328 84.2424Z"/><path fill="#DEDADD" transform="matrix(3.91489 0 0 3.9148 6.10352e-05 0)" d="M248.153 50.9931L249.489 52.9629C250.667 53.5241 255.383 53.0245 256.892 53.0771C260.65 53.208 281.379 52.5223 283.531 53.5795L283.497 53.7935C283.268 54.0913 283.022 54.4852 282.696 54.6295C280.824 53.7122 250.285 53.5572 248.483 54.344C243.728 61.8286 239.496 69.8396 235.162 77.5788C234.513 78.7373 231.699 82.3647 231.608 83.2428C232.242 85.5281 234.257 88.6281 235.547 90.7375C239.377 97.0042 242.836 103.466 246.777 109.662C247.388 110.622 247.91 111.53 248.403 112.557L248.79 113.221L248.111 114.185L247.242 112.954C245.58 109.387 242.436 104.136 240.441 100.649C237.311 95.1778 234.036 89.2205 230.699 83.9246C223.69 83.6901 216.325 83.8562 209.29 83.8308C206.902 83.8222 200.042 83.7766 198.154 84.1172C197.417 85.1375 198.557 85.057 197.886 86.1572L197.594 86.4759C193.312 91.8379 191.029 96.7687 187.772 102.723C185.913 106.122 183.878 109.28 182.098 112.779L181.127 113.311L181.544 113.424C180.832 113.903 179.897 113.893 179.142 114.177L177.955 114.001C168.311 113.843 158.694 114.042 149.05 113.972C147.607 113.961 146.166 113.916 144.728 113.783C143.123 117.221 141.027 120.908 139.065 124.184C135.38 130.341 132.038 136.986 128.229 143.038C134.611 142.973 140.993 142.97 147.374 143.028C151.231 143.053 158.265 143.209 162.016 142.642L162.936 142.948C170.262 143.04 177.589 143.058 184.916 143C186.76 142.991 194.511 142.855 196.053 143.144L196.146 143.491L195.504 143.932C193.25 144.137 189.272 143.946 186.847 144.018C178.965 144.253 171.104 143.976 163.215 144.001L161.936 144.062C160.973 143.977 160.016 143.968 159.05 143.96C148.891 143.882 138.729 144.161 128.57 144.034C127.583 144.146 126.941 144.435 126.169 144.043C120.228 143.822 113.573 143.976 107.586 143.932C103.623 143.904 96.6918 143.756 92.9075 144.146C92.2445 144.077 92.4544 144.196 92.0582 143.765L92.2166 142.952L93.9724 142.998C101.16 143.339 109.475 142.757 116.738 142.965C119.884 143.055 124.331 142.71 127.322 143.402C128.065 140.621 131.601 135.059 133.176 132.285C136.564 126.315 140.236 120.429 143.501 114.376L143.314 113.877C143.807 113.648 143.849 113.589 144.256 113.217C144.836 112.517 146.617 109.234 147.164 108.275C149.174 104.748 151.073 101.103 153.279 97.6873L154.442 97.9418L145.726 112.969C149.015 112.968 176.63 113.215 177.782 112.677C178.034 112.441 178.393 112.356 178.737 112.231L178.931 111.759C184.914 102.597 190.24 92.9652 195.764 83.5114C195.936 82.5176 195.743 82.8284 196.455 82.1757C196.955 82.6746 197.726 82.8908 198.418 82.8942C209.023 82.9476 219.699 82.5397 230.298 82.9865C224.625 74.2438 219.163 62.1709 213.419 53.971C213.688 53.6324 214.035 53.4745 214.413 53.2534C215.661 56.5043 229.348 80.2186 231.239 82.3257C235.12 75.2927 239.087 68.308 243.141 61.373C244.58 58.8842 246.089 56.3751 247.63 53.9346C247.975 53.3875 247.69 53.0403 247.451 52.4056L246.983 51.9795L248.153 50.9931Z"/><path fill="#030303" transform="matrix(3.91489 0 0 3.9148 6.10352e-05 0)" d="M181.127 113.311L180.549 112.606C180.64 111.851 184.088 105.681 184.662 104.896C186.396 102.524 195.256 85.2403 196.897 84.8572C197.501 85.4653 197.355 85.5119 197.594 86.4759C193.312 91.8379 191.029 96.7687 187.772 102.723C185.913 106.122 183.878 109.28 182.098 112.779L181.127 113.311Z"/><path fill="#837685" transform="matrix(3.91489 0 0 3.9148 6.10352e-05 0)" d="M248.153 50.9931L249.489 52.9629L248.466 53.152C248.13 52.8994 247.792 52.6506 247.451 52.4056L246.983 51.9795L248.153 50.9931Z"/><path fill="#2A57CA" transform="matrix(3.91489 0 0 3.9148 6.10352e-05 0)" d="M42.4294 114.404C48.2439 112.834 57.3433 113.832 63.3558 114.043C67.3844 114.183 72.6562 113.836 76.5397 114.28C78.6541 116.451 80.1528 119.885 81.8751 122.412L83.0109 124.376C86.4154 129.987 89.5067 135.783 92.961 141.365C93.2432 141.821 93.5536 142.254 93.8858 142.675L93.9724 142.998L92.2166 142.952L92.0582 143.765C92.4544 144.196 92.2445 144.077 92.9075 144.146C96.6918 143.756 103.623 143.904 107.586 143.932C113.573 143.976 120.228 143.822 126.169 144.043C126.941 144.435 127.583 144.146 128.57 144.034C129.262 145.96 134.232 154.192 135.601 156.221C138.186 160.053 142.948 170.603 145.669 173.205C146.594 173.037 149.193 173.348 150.132 173.292C153.478 173.092 176.859 173.744 178.034 172.674L178.638 172.602L178.533 173.853C178.862 174.229 179.126 174.446 179.218 174.93C172.102 175.006 164.985 175.025 157.869 174.985C154.831 174.98 149.03 174.829 146.2 175.174C139.543 184.421 135.134 195.161 128.254 204.675C125.256 205.165 118.069 204.994 114.706 204.998L90.2195 204.995L49.1983 204.968C45.8356 204.971 26.2761 205.338 24.4654 204.415L23.7353 203.652C23.2966 202.294 20.6956 197.793 19.8867 196.342C17.215 191.552 14.5505 186.722 11.7159 182.017C10.4344 179.89 8.82629 177.505 7.75275 175.279C7.46996 174.693 7.55714 174.473 7.77833 174.005L8.13929 173.287C9.88591 169.834 12.5174 165.548 14.4291 162.072C20.444 151.137 26.7197 140.113 33.2402 129.478C35.4086 125.941 39.8901 116.939 42.4294 114.404Z"/><path fill="#5D95F6" transform="matrix(3.91489 0 0 3.9148 6.10352e-05 0)" d="M42.4294 114.404C48.2439 112.834 57.3433 113.832 63.3558 114.043C67.3844 114.183 72.6562 113.836 76.5397 114.28C78.6541 116.451 80.1528 119.885 81.8751 122.412L83.0109 124.376C86.4154 129.987 89.5067 135.783 92.961 141.365C93.2432 141.821 93.5536 142.254 93.8858 142.675L93.9724 142.998L92.2166 142.952L92.0582 143.765C92.4544 144.196 92.2445 144.077 92.9075 144.146C92.0267 144.908 88.2447 152.551 87.3096 154.097C84.1918 159.252 80.7143 166.294 77.2737 171.139L76.2135 171.161C75.9534 171.66 75.5636 172.471 75.285 172.924C69.97 173.33 65.0442 173.125 59.7306 173.081C55.0975 173.079 50.4645 173.122 45.8323 173.212C43.7539 173.428 42.7274 173.123 40.755 172.916C36.5702 173.304 32.2219 173.213 28.0087 173.216C21.3855 173.185 14.7621 173.208 8.13929 173.287C9.88591 169.834 12.5174 165.548 14.4291 162.072C20.444 151.137 26.7197 140.113 33.2402 129.478C35.4086 125.941 39.8901 116.939 42.4294 114.404Z"/><path fill="#5D95F6" transform="matrix(3.91489 0 0 3.9148 6.10352e-05 0)" d="M91.3244 142.659C91.9707 142.709 91.8537 142.597 92.2166 142.952L92.0582 143.765C92.4544 144.196 92.2445 144.077 92.9075 144.146C92.0267 144.908 88.2447 152.551 87.3096 154.097C84.1918 159.252 80.7143 166.294 77.2737 171.139L76.2135 171.161C75.9534 171.66 75.5636 172.471 75.285 172.924C69.97 173.33 65.0442 173.125 59.7306 173.081C55.0975 173.079 50.4645 173.122 45.8323 173.212C43.7539 173.428 42.7274 173.123 40.755 172.916C42.3219 169.77 43.9836 166.673 45.7379 163.628C47.4215 160.761 56.6446 145.855 57.0748 144.005L57.9026 143.946C58.5754 143.78 59.7131 143.853 60.4419 143.86C70.7192 143.971 81.1513 143.471 91.4089 143.957L91.0819 143.047L91.3244 142.659Z"/><path fill="#C1B6D9" transform="matrix(3.91489 0 0 3.9148 6.10352e-05 0)" d="M57.0748 144.005L57.9026 143.946C57.6201 146.887 44.4802 167.954 41.9166 173.066C43.1676 173.074 44.6074 173.037 45.8323 173.212C43.7539 173.428 42.7274 173.123 40.755 172.916C42.3219 169.77 43.9836 166.673 45.7379 163.628C47.4215 160.761 56.6446 145.855 57.0748 144.005Z"/><path fill="#C1B6D9" transform="matrix(3.91489 0 0 3.9148 6.10352e-05 0)" d="M91.3244 142.659C91.9707 142.709 91.8537 142.597 92.2166 142.952L92.0582 143.765C92.4544 144.196 92.2445 144.077 92.9075 144.146C92.0267 144.908 88.2447 152.551 87.3096 154.097C84.1918 159.252 80.7143 166.294 77.2737 171.139L76.2135 171.161C77.2468 169.004 78.5612 166.835 79.7961 164.772C83.8519 157.997 87.524 150.892 91.6859 144.19L91.4089 143.957L91.0819 143.047L91.3244 142.659Z"/><path fill="#2A57CA" transform="matrix(3.91489 0 0 3.9148 6.10352e-05 0)" d="M76.5397 114.28C78.6541 116.451 80.1528 119.885 81.8751 122.412L83.0109 124.376C86.4154 129.987 89.5067 135.783 92.961 141.365C93.2432 141.821 93.5536 142.254 93.8858 142.675L93.9724 142.998L92.2166 142.952C91.8537 142.597 91.9707 142.709 91.3244 142.659L91.0819 143.047C81.6084 142.668 70.7848 142.814 61.2788 142.985C60.534 142.9 60.3736 142.893 59.671 142.59C60.621 140.436 62.5123 137.503 63.6992 135.347C67.2756 128.851 71.8633 121.995 74.9323 115.269L75.4991 115.087C75.9526 115.455 75.9447 115.548 76.145 116.124L76.5397 114.28Z"/><path fill="#8D8FA2" transform="matrix(3.91489 0 0 3.9148 6.10352e-05 0)" d="M83.0109 124.376C86.4154 129.987 89.5067 135.783 92.961 141.365C93.2432 141.821 93.5536 142.254 93.8858 142.675L93.9724 142.998L92.2166 142.952C91.8537 142.597 91.9707 142.709 91.3244 142.659C90.6535 140.292 83.1279 128.338 81.2202 124.612C81.8271 124.462 82.3916 124.43 83.0109 124.376Z"/><path fill="#7B757C" transform="matrix(3.91489 0 0 3.9148 6.10352e-05 0)" d="M76.5397 114.28C78.6541 116.451 80.1528 119.885 81.8751 122.412L83.0109 124.376C82.3916 124.43 81.8271 124.462 81.2202 124.612L80.6212 123.51C79.3629 121.527 77.0834 118.111 76.145 116.124L76.5397 114.28Z"/><path fill="#E6E2FC" transform="matrix(3.91489 0 0 3.9148 6.10352e-05 0)" d="M58.0954 142.942C59.4611 142.781 60.3217 143.142 61.2788 142.985C70.7848 142.814 81.6084 142.668 91.0819 143.047L91.4089 143.957C81.1513 143.471 70.7192 143.971 60.4419 143.86C59.7131 143.853 58.5754 143.78 57.9026 143.946L57.0748 144.005C50.5739 144.041 44.0729 144.041 37.572 144.003C34.3803 143.982 29.2396 144.079 26.2784 143.574L26.3016 143.404C29.4226 143.11 33.4433 143.232 36.679 143.188L58.0954 142.942Z"/><path fill="#C1B6D9" transform="matrix(3.91489 0 0 3.9148 6.10352e-05 0)" d="M58.0954 142.942C59.7824 139.665 72.9519 115.499 74.3545 114.993L74.9323 115.269C71.8633 121.995 67.2756 128.851 63.6992 135.347C62.5123 137.503 60.621 140.436 59.671 142.59C60.3736 142.893 60.534 142.9 61.2788 142.985C60.3217 143.142 59.4611 142.781 58.0954 142.942Z"/><path fill="#5D95F6" transform="matrix(3.91489 0 0 3.9148 6.10352e-05 0)" d="M92.9075 144.146C96.6918 143.756 103.623 143.904 107.586 143.932C113.573 143.976 120.228 143.822 126.169 144.043L126.441 144.384L126.913 145.012C125.231 148.908 121.032 155.742 118.755 159.752C116.771 163.247 112.794 170.581 110.57 173.507C111.491 174.981 112.865 177.032 113.668 178.509C113.412 178.808 113.125 179.174 112.837 179.43L109.844 174.005C103.45 173.768 95.8484 174.323 89.3023 174.232C86.9034 174.199 78.4252 173.988 76.8818 174.185C76.4432 174.487 76.677 174.413 76.1649 174.44L76.135 175.52C76.0213 175.221 75.5662 174.115 75.3158 174.106C64.8374 173.762 52.1974 174.236 41.9176 173.96L41.1482 173.952C39.6754 174.061 37.7869 174.031 36.2984 173.995C26.8793 173.764 17.1613 174.409 7.77833 174.005L8.13929 173.287C14.7621 173.208 21.3855 173.185 28.0087 173.216C32.2219 173.213 36.5702 173.304 40.755 172.916C42.7274 173.123 43.7539 173.428 45.8323 173.212C50.4645 173.122 55.0975 173.079 59.7306 173.081C65.0442 173.125 69.97 173.33 75.285 172.924C75.5636 172.471 75.9534 171.66 76.2135 171.161L77.2737 171.139C80.7143 166.294 84.1918 159.252 87.3096 154.097C88.2447 152.551 92.0267 144.908 92.9075 144.146Z"/><path fill="#E6E2FC" transform="matrix(3.91489 0 0 3.9148 6.10352e-05 0)" d="M126.441 144.384L126.913 145.012C125.231 148.908 121.032 155.742 118.755 159.752C116.771 163.247 112.794 170.581 110.57 173.507C111.491 174.981 112.865 177.032 113.668 178.509C113.412 178.808 113.125 179.174 112.837 179.43L109.844 174.005C103.45 173.768 95.8484 174.323 89.3023 174.232C86.9034 174.199 78.4252 173.988 76.8818 174.185C76.4432 174.487 76.677 174.413 76.1649 174.44L76.135 175.52C76.0213 175.221 75.5662 174.115 75.3158 174.106C64.8374 173.762 52.1974 174.236 41.9176 173.96L41.1482 173.952C39.6754 174.061 37.7869 174.031 36.2984 173.995C26.8793 173.764 17.1613 174.409 7.77833 174.005L8.13929 173.287C14.7621 173.208 21.3855 173.185 28.0087 173.216C32.2219 173.213 36.5702 173.304 40.755 172.916C42.7274 173.123 43.7539 173.428 45.8323 173.212C50.4645 173.122 55.0975 173.079 59.7306 173.081C65.0442 173.125 69.97 173.33 75.285 172.924C75.5636 172.471 75.9534 171.66 76.2135 171.161L77.2737 171.139C76.9359 171.741 76.8269 172.23 77.0657 172.852C78.7881 173.594 106.04 173.169 109.923 173.001C110.777 170.931 115.911 162.154 117.189 160.02C119.409 156.314 124.009 147.447 126.441 144.384Z"/><path fill="#006E60" transform="matrix(3.91489 0 0 3.9148 6.10352e-05 0)" d="M126.169 144.043C126.941 144.435 127.583 144.146 128.57 144.034C129.262 145.96 134.232 154.192 135.601 156.221C138.186 160.053 142.948 170.603 145.669 173.205L145.962 173.61L144.99 173.872C142.955 176.916 141.158 180.389 139.361 183.604C136.953 187.878 134.522 192.139 132.07 196.388C131.622 197.168 128.167 202.885 128.078 203.196C127.51 203.546 127.119 203.84 126.468 203.995L126.589 203.045C122.349 196.961 116.588 186.119 112.837 179.43C113.125 179.174 113.412 178.808 113.668 178.509C112.865 177.032 111.491 174.981 110.57 173.507C112.794 170.581 116.771 163.247 118.755 159.752C121.032 155.742 125.231 148.908 126.913 145.012L126.441 144.384L126.169 144.043Z"/><path fill="#B3B6B5" transform="matrix(3.91489 0 0 3.9148 6.10352e-05 0)" d="M126.169 144.043C126.941 144.435 127.583 144.146 128.57 144.034C129.262 145.96 134.232 154.192 135.601 156.221C138.186 160.053 142.948 170.603 145.669 173.205L145.962 173.61L144.99 173.872C142.955 176.916 141.158 180.389 139.361 183.604C136.953 187.878 134.522 192.139 132.07 196.388C131.622 197.168 128.167 202.885 128.078 203.196L127.428 202.259C128.142 201.405 132.662 192.978 133.618 191.265C136.988 185.303 140.439 179.387 143.97 173.519C142.416 171.003 127.055 144.458 127.315 144.578L126.913 145.012L126.441 144.384L126.169 144.043Z"/><defs><linearGradient id="gradient_1" gradientUnits="userSpaceOnUse" x1="119.04752" y1="191.04086" x2="120.70248" y2="190.20914"><stop offset="0" stop-color="#B3B9B4"/><stop offset="1" stop-color="#C0B6B7"/></linearGradient></defs><path fill="url(#gradient_1)" transform="matrix(3.91489 0 0 3.9148 6.10352e-05 0)" d="M113.668 178.509C117.671 183.827 120.941 192.051 124.786 197.669C125.444 198.629 127.039 201.316 127.428 202.259L128.078 203.196C127.51 203.546 127.119 203.84 126.468 203.995L126.589 203.045C122.349 196.961 116.588 186.119 112.837 179.43C113.125 179.174 113.412 178.808 113.668 178.509Z"/><path fill="#2A57CA" transform="matrix(3.91489 0 0 3.9148 6.10352e-05 0)" d="M7.77833 174.005C17.1613 174.409 26.8793 173.764 36.2984 173.995C37.7869 174.031 39.6754 174.061 41.1482 173.952C41.7038 179.492 57.0095 199.985 56.3426 202.87C54.503 203.493 53.1376 203.263 51.9251 203.769C49.975 203.941 46.2705 203.863 44.2962 203.741C41.0178 203.754 27.1551 203.637 24.4654 204.415L23.7353 203.652C23.2966 202.294 20.6956 197.793 19.8867 196.342C17.215 191.552 14.5505 186.722 11.7159 182.017C10.4344 179.89 8.82629 177.505 7.75275 175.279C7.46996 174.693 7.55714 174.473 7.77833 174.005Z"/><path fill="#C1B6D9" transform="matrix(3.91489 0 0 3.9148 6.10352e-05 0)" d="M23.7353 203.652C25.74 202.697 41.6918 203.131 44.2962 203.741C41.0178 203.754 27.1551 203.637 24.4654 204.415L23.7353 203.652Z"/><path fill="#2A57CA" transform="matrix(3.91489 0 0 3.9148 6.10352e-05 0)" d="M76.8818 174.185C78.4252 173.988 86.9034 174.199 89.3023 174.232C95.8484 174.323 103.45 173.768 109.844 174.005L112.837 179.43C116.588 186.119 122.349 196.961 126.589 203.045C117.36 203.506 104.95 203.451 95.6615 203.311L92.9053 203.201C90.9608 197.515 84.0488 187.373 81.0255 181.653C79.8123 179.358 77.6827 176.703 76.8818 174.185Z"/><path fill="#030303" transform="matrix(3.91489 0 0 3.9148 6.10352e-05 0)" d="M178.034 172.674L178.638 172.602L178.533 173.853C178.862 174.229 179.126 174.446 179.218 174.93C172.102 175.006 164.985 175.025 157.869 174.985C154.831 174.98 149.03 174.829 146.2 175.174C139.543 184.421 135.134 195.161 128.254 204.675C125.256 205.165 118.069 204.994 114.706 204.998L90.2195 204.995L49.1983 204.968C45.8356 204.971 26.2761 205.338 24.4654 204.415C27.1551 203.637 41.0178 203.754 44.2962 203.741C46.2705 203.863 49.975 203.941 51.9251 203.769C56.5957 203.768 61.4009 203.828 66.0545 203.744C68.9559 203.945 83.2421 204.233 85.6211 203.767L95.2687 203.753L95.6615 203.311C104.95 203.451 117.36 203.506 126.589 203.045L126.468 203.995C127.119 203.84 127.51 203.546 128.078 203.196C128.167 202.885 131.622 197.168 132.07 196.388C134.522 192.139 136.953 187.878 139.361 183.604C141.158 180.389 142.955 176.916 144.99 173.872L145.962 173.61L145.669 173.205C146.594 173.037 149.193 173.348 150.132 173.292C153.478 173.092 176.859 173.744 178.034 172.674Z"/><path fill="#9CBCB4" transform="matrix(3.91489 0 0 3.9148 6.10352e-05 0)" d="M178.034 172.674L178.638 172.602L178.533 173.853C177.493 174.096 167.396 173.928 165.625 173.872C159.375 173.673 150.917 174.347 144.99 173.872L145.962 173.61L145.669 173.205C146.594 173.037 149.193 173.348 150.132 173.292C153.478 173.092 176.859 173.744 178.034 172.674Z"/><path fill="#C1B6D9" transform="matrix(3.91489 0 0 3.9148 6.10352e-05 0)" d="M126.589 203.045L126.468 203.995C116.217 204.067 105.586 203.783 95.2687 203.753L95.6615 203.311C104.95 203.451 117.36 203.506 126.589 203.045Z"/><path fill="#C1B6D9" transform="matrix(3.91489 0 0 3.9148 6.10352e-05 0)" d="M76.135 175.52L76.1649 174.44C76.677 174.413 76.4432 174.487 76.8818 174.185C77.6827 176.703 79.8123 179.358 81.0255 181.653C84.0488 187.373 90.9608 197.515 92.9053 203.201L95.6615 203.311L95.2687 203.753L85.6211 203.767C87.2413 203.025 90.1926 203.623 91.1338 202.744C90.8396 200.962 88.3386 197.126 87.3353 195.418L80.969 184.444C79.5375 181.999 77.0881 178.024 76.135 175.52Z"/><path fill="#C1B6D9" transform="matrix(3.91489 0 0 3.9148 6.10352e-05 0)" d="M41.1482 173.952L41.9176 173.96C45.2947 180.18 49.1714 186.245 52.617 192.428C54.2253 195.314 57.2404 200.183 58.0854 203.259C60.3361 203.297 63.9549 203.248 66.0545 203.744C61.4009 203.828 56.5957 203.768 51.9251 203.769C53.1376 203.263 54.503 203.493 56.3426 202.87C57.0095 199.985 41.7038 179.492 41.1482 173.952Z"/></svg>