<?xml version="1.0" encoding="utf-8" ?><svg xmlns="http://www.w3.org/2000/svg" xmlns:xlink="http://www.w3.org/1999/xlink" width="796" height="761" viewBox="0 0 796 761"><path fill="#464879" transform="matrix(2.36905 0 0 2.37072 6.10352e-05 -1.52588e-05)" d="M162.71 4.13371C249.477 1.76577 321.706 70.2442 323.963 157.014C326.22 243.784 257.65 315.925 170.877 318.072C84.2608 320.214 12.2781 251.794 10.0249 165.181C7.77175 78.5674 76.0998 6.49737 162.71 4.13371ZM176.624 312.657C260.337 307.355 323.887 235.171 318.54 151.461C313.192 67.7507 240.974 4.23946 157.267 9.6319C73.6231 15.0202 10.1706 87.1718 15.514 170.818C20.8574 254.465 92.975 317.956 176.624 312.657Z"/><path fill="#88B8BE" transform="matrix(2.36905 0 0 2.37072 6.10352e-05 -1.52588e-05)" d="M214.753 78.3575C221.447 77.4195 233.521 79.4015 240.387 80.5131C254.002 82.7173 267.825 87.66 280.597 92.7718C287.322 95.4635 294.261 97.8631 300.485 101.657C303.763 103.655 304.863 108.546 306.017 111.941C313.855 134.849 316.439 158.929 312.853 182.918C311.897 189.312 309.974 195.605 308.857 201.993C284.834 197.599 257.099 187.627 234.786 177.709C205.895 164.868 175.416 148.897 143.688 144.599C104.892 139.863 76.1223 152.307 41.614 167.889C34.6286 171.043 27.5348 174.362 20.4389 177.244C19.3814 167.835 19.818 149.446 20.8133 139.886C26.2726 138.72 33.7825 138.05 38.8409 136.816C54.9584 132.883 73.795 127.635 89.1932 121.689C132.197 105.084 167.278 81.1027 214.753 78.3575Z"/><path fill="#5B7DA2" transform="matrix(2.36905 0 0 2.37072 6.10352e-05 -1.52588e-05)" d="M120.492 146.857C123.238 146.589 128.466 146.656 131.265 146.69C161.444 147.048 191.39 161.088 218.449 173.482C228.208 177.926 238.012 182.268 247.861 186.507C259.674 191.503 273.283 195.906 285.6 199.533C292.759 201.641 300.469 203.772 307.802 204.951L307.749 205.14C303.27 221.045 292.943 238.506 283.179 251.731C281.029 254.643 278.004 259.84 275.208 253.951C270.737 253.691 266.244 253.834 261.77 253.859C255.161 253.895 248.552 253.859 241.944 253.751C241.942 251.271 241.995 248.792 242.104 246.314C230.718 246.17 219.33 246.163 207.944 246.291C207.83 240.828 207.85 234.183 208.09 228.756C202.093 228.807 196.097 228.821 190.1 228.796L174.092 228.92C174.297 220.446 173.653 210.207 174.157 201.953C162.925 202.219 150.872 201.981 139.57 201.995C139.574 197.403 139.283 187.609 139.712 183.461C127.495 183.569 115.277 183.573 103.059 183.47C103.234 184.873 103.185 186.097 103.164 187.502C91.4849 187.333 81.1338 187.243 69.3421 187.577C69.5101 189.713 69.3091 193.787 69.2925 196.095L69.3262 211.433C58.0263 211.28 46.2591 211.622 35.0678 211.321C35.4994 216.145 35.1424 221.542 35.6218 226.929C28.2504 217.053 22.8123 192.398 20.6707 180.159C28.6067 177.134 35.7995 173.556 43.5566 170.13C63.2776 161.419 82.7624 152.554 104.104 148.564C109.298 147.593 115.219 147.215 120.492 146.857Z"/><path fill="#464879" transform="matrix(2.36905 0 0 2.37072 6.10352e-05 -1.52588e-05)" d="M106.137 185.315C107.966 185.633 114.614 185.594 116.673 185.595L137.467 185.517C137.691 194.511 137.52 204.038 137.505 213.078L137.396 265.838C137.26 279.037 137.309 292.236 137.543 305.433C125.775 302.797 116.768 300.409 105.696 295.186C105.825 285.196 105.173 187.491 106.137 185.315Z"/><path fill="#464879" transform="matrix(2.36905 0 0 2.37072 6.10352e-05 -1.52588e-05)" d="M139.575 204.524C142.57 204.854 147.99 204.755 151.056 204.754C157.775 204.767 164.493 204.706 171.21 204.571C171.604 217.056 171.194 232.087 171.147 244.714L171.223 308.321C170.427 308.503 167.252 308.378 166.321 308.377C157.176 308.368 148.485 307.303 139.441 306.271C139.864 272.738 139.769 238.056 139.575 204.524Z"/><path fill="#464879" transform="matrix(2.36905 0 0 2.37072 6.10352e-05 -1.52588e-05)" d="M72.1596 189.84C82.507 189.743 92.8549 189.721 103.203 189.772C103.338 197.953 103.667 292.372 103.139 293.829C94.9249 289.852 78.012 280.098 71.7226 273.521C71.9946 251.702 71.5763 229.814 71.7913 207.991C71.8491 202.121 71.6649 196.239 71.8321 190.373C71.9413 190.196 72.0505 190.018 72.1596 189.84Z"/><path fill="#464879" transform="matrix(2.36905 0 0 2.37072 6.10352e-05 -1.52588e-05)" d="M174.175 231.061L204.979 231.122C205.312 233.665 205.137 237.77 205.105 240.466C205.051 244.957 205.024 249.449 205.025 253.94C204.926 270.497 204.996 287.055 205.234 303.61L201.705 304.416C191.065 307.049 184.998 307.728 174.028 308.276L174.174 252.173C174.179 247.554 174.158 242.935 174.11 238.317C174.095 236.796 173.953 232.37 174.175 231.061Z"/><path fill="#464879" transform="matrix(2.36905 0 0 2.37072 6.10352e-05 -1.52588e-05)" d="M207.859 249.263C210.995 249.54 215.683 249.388 218.954 249.382C225.728 249.338 232.502 249.354 239.275 249.432C239.22 261.874 238.821 277.301 239.523 289.585C236.646 291.086 233.745 292.54 230.821 293.947C223.066 297.83 216.011 300.356 207.823 302.959L207.859 249.263Z"/><path fill="#464879" transform="matrix(2.36905 0 0 2.37072 6.10352e-05 -1.52588e-05)" d="M37.8144 214.253C39.2305 214.306 40.7571 214.306 42.177 214.287C51.1704 214.163 60.2718 214.544 69.2556 214.329C69.4387 233.217 69.0833 252.209 69.4501 271.079L68.8826 271.158C68.0703 270.828 67.6213 270.302 66.9875 269.683C57.3656 260.379 48.8753 249.972 41.6928 238.678C40.9112 237.445 38.1205 233.084 38.0149 231.918C37.53 226.571 37.8768 219.706 37.8144 214.253Z"/><path fill="#464879" transform="matrix(2.36905 0 0 2.37072 6.10352e-05 -1.52588e-05)" d="M242.177 256.614C251.144 257.107 264.042 256.614 273.246 256.49C273.301 258.952 273.348 261.07 273.211 263.523C270.454 266.748 263.589 272.495 260.235 275.325C255.223 279.355 247.499 285.157 241.744 287.679C241.935 281.769 242.015 275.857 241.984 269.944C241.967 267.707 241.56 257.658 242.177 256.614Z"/><path fill="#88B8BE" transform="matrix(2.36905 0 0 2.37072 6.10352e-05 -1.52588e-05)" d="M118.087 49.8547C121.122 49.11 124.189 50.9538 124.955 53.9833C125.72 57.0127 123.898 60.0922 120.873 60.8787C117.82 61.6728 114.704 59.8284 113.93 56.7693C113.157 53.7102 115.023 50.6067 118.087 49.8547Z"/><path fill="#88B8BE" transform="matrix(2.36905 0 0 2.37072 6.10352e-05 -1.52588e-05)" d="M142.502 76.2898C143.705 76.3814 145.036 76.4462 146.156 76.9212C151.217 79.0663 150.754 85.3194 145.732 87.2404C142.543 87.7206 141.08 87.0457 138.93 84.7903C137.626 80.2977 138.075 78.1491 142.502 76.2898Z"/><path fill="#88B8BE" transform="matrix(2.36905 0 0 2.37072 6.10352e-05 -1.52588e-05)" d="M262.094 55.5328C267.14 55.3441 270.023 58.6051 268.103 63.7769C267.527 65.3279 265.931 65.8211 264.439 66.3153C261.897 66.6162 259.316 65.9557 258.214 63.4036C257.607 61.9671 257.597 60.3486 258.184 58.9041C259.025 56.8041 260.133 56.3701 262.094 55.5328Z"/><path fill="#88B8BE" transform="matrix(2.36905 0 0 2.37072 6.10352e-05 -1.52588e-05)" d="M132.587 83.5586C135.552 83.2146 138.25 85.296 138.671 88.2508C139.091 91.2056 137.08 93.9572 134.137 94.4539C132.165 94.7868 130.167 94.0233 128.919 92.4597C127.671 90.8962 127.37 88.7787 128.132 86.9292C128.894 85.0796 130.6 83.7891 132.587 83.5586Z"/><path fill="#88B8BE" transform="matrix(2.36905 0 0 2.37072 6.10352e-05 -1.52588e-05)" d="M228.732 39.4402C231.041 37.5348 234.028 36.4731 236.106 39.4017C238.878 43.3063 236.879 50.3511 231.061 48.7738C227.329 47.7623 225.626 44.2055 227.55 40.7687L228.732 39.4402Z"/><path fill="#88B8BE" transform="matrix(2.36905 0 0 2.37072 6.10352e-05 -1.52588e-05)" d="M189.737 27.2885C192.451 27.1415 192.62 27.2044 194.917 28.6715C197.239 32.6048 196.633 36.4766 192.191 38.3503C191.123 38.4394 190.47 38.4348 189.425 38.1162C188.065 37.7061 186.931 36.7591 186.285 35.494C185.544 34.031 185.424 32.3315 185.952 30.779C186.696 28.6401 187.845 28.2004 189.737 27.2885Z"/><path fill="#88B8BE" transform="matrix(2.36905 0 0 2.37072 6.10352e-05 -1.52588e-05)" d="M78.5467 85.3995C81.4737 84.5831 84.5057 86.3058 85.3028 89.2381C86.1 92.1704 84.3574 95.1911 81.4199 95.969C78.5096 96.7396 75.5229 95.0166 74.7331 92.1114C73.9434 89.2062 75.6467 86.2083 78.5467 85.3995Z"/><path fill="#88B8BE" transform="matrix(2.36905 0 0 2.37072 6.10352e-05 -1.52588e-05)" d="M94.7543 69.5212C97.7283 69.261 100.36 71.4364 100.665 74.4062C100.969 77.3759 98.8331 80.0401 95.8682 80.3886C93.9107 80.6187 91.981 79.7765 90.8186 78.1846C89.6563 76.5928 89.4416 74.4983 90.2568 72.7037C91.072 70.9092 92.7908 69.693 94.7543 69.5212Z"/><path fill="#88B8BE" transform="matrix(2.36905 0 0 2.37072 6.10352e-05 -1.52588e-05)" d="M61.3152 102.281C68.2986 101.522 70.5412 109.954 63.6834 113.427C61.1925 113.665 58.9797 112.78 57.8068 110.471C57.1284 109.129 57.0103 107.573 57.4784 106.144C58.166 104.103 59.4815 103.216 61.3152 102.281Z"/><path fill="#88B8BE" transform="matrix(2.36905 0 0 2.37072 6.10352e-05 -1.52588e-05)" d="M209.17 58.8078C209.836 58.7594 211.799 59.3446 212.277 59.7345C216.416 63.1162 213.581 68.6572 209.131 69.6797C204.984 69.2839 201.711 65.6829 203.989 61.4746C205.018 59.5724 207.223 59.216 209.17 58.8078Z"/><path fill="#88B8BE" transform="matrix(2.36905 0 0 2.37072 6.10352e-05 -1.52588e-05)" d="M220.457 44.3375C223.425 43.9372 226.153 46.0224 226.546 48.9905C226.938 51.9586 224.846 54.6815 221.877 55.0667C218.919 55.4506 216.208 53.3676 215.816 50.4101C215.425 47.4526 217.501 44.7363 220.457 44.3375Z"/><path fill="#88B8BE" transform="matrix(2.36905 0 0 2.37072 6.10352e-05 -1.52588e-05)" d="M252.124 62.8564C253.738 62.5911 255.385 63.0762 256.597 64.174C257.809 65.2718 258.454 66.8624 258.349 68.4944C258.19 70.982 256.338 73.0321 253.88 73.4431C251.653 73.8154 249.431 72.7539 248.322 70.7876C247.212 68.8214 247.452 66.3709 248.922 64.6574C249.745 63.699 250.878 63.0613 252.124 62.8564Z"/><path fill="#88B8BE" transform="matrix(2.36905 0 0 2.37072 6.10352e-05 -1.52588e-05)" d="M119.467 92.6283C121.378 92.2541 123.342 92.9453 124.597 94.4339C125.853 95.9226 126.203 97.9748 125.512 99.7954C124.82 101.616 123.197 102.919 121.27 103.199C119.638 103.437 117.988 102.91 116.795 101.772C115.602 100.634 114.999 99.01 115.16 97.369C115.391 95.0108 117.142 93.0836 119.467 92.6283Z"/><path fill="#88B8BE" transform="matrix(2.36905 0 0 2.37072 6.10352e-05 -1.52588e-05)" d="M107.061 55.2932C114.204 54.8612 115.905 63.1563 109.171 66.2331C104.322 66.3892 101.957 62.311 103.558 57.8342C104.092 56.3427 105.657 55.7945 107.061 55.2932Z"/><path fill="#88B8BE" transform="matrix(2.36905 0 0 2.37072 6.10352e-05 -1.52588e-05)" d="M135.095 25.6031C138.004 25.5756 140.397 27.885 140.474 30.7928C140.551 33.7007 138.283 36.1335 135.377 36.2599C133.452 36.3437 131.633 35.3828 130.616 33.7465C129.6 32.1101 129.546 30.0528 130.474 28.365C131.402 26.6771 133.169 25.6213 135.095 25.6031Z"/><path fill="#88B8BE" transform="matrix(2.36905 0 0 2.37072 6.10352e-05 -1.52588e-05)" d="M51.58 107.78C55.952 107.216 58.8473 111.946 57.3439 115.823C56.7212 117.429 55.5605 117.797 54.065 118.371C45.7655 118.521 45.1252 110.837 51.58 107.78Z"/><path fill="#88B8BE" transform="matrix(2.36905 0 0 2.37072 6.10352e-05 -1.52588e-05)" d="M120.66 38.3209C122.489 37.9434 124.38 38.5783 125.611 39.9832C126.841 41.388 127.222 43.346 126.607 45.1098C125.993 46.8735 124.477 48.1707 122.64 48.5061C119.844 49.0166 117.158 47.1824 116.615 44.3925C116.073 41.6025 117.876 38.8953 120.66 38.3209Z"/><path fill="#88B8BE" transform="matrix(2.36905 0 0 2.37072 6.10352e-05 -1.52588e-05)" d="M63.3253 96.7554C63.641 95.9379 64.288 94.2384 64.8489 93.5989C65.8626 92.463 67.2914 91.7837 68.8123 91.7145C72.4781 91.5823 74.0362 94.8463 74.0295 98.0408C73.7513 98.793 73.5784 99.3632 73.1496 100.048C67.955 103.925 65.4699 102.164 63.3253 96.7554Z"/><path fill="#88B8BE" transform="matrix(2.36905 0 0 2.37072 6.10352e-05 -1.52588e-05)" d="M197.944 67.8039C202.091 67.3203 204.563 69.0619 205.026 73.3782C205.143 74.4688 204.863 75.1639 204.298 76.0924C203.526 76.5684 202.198 76.5841 201.239 76.6731C195.828 77.3095 192.472 77.4542 195.078 70.3102C195.596 68.8925 196.613 68.3183 197.944 67.8039Z"/><path fill="#88B8BE" transform="matrix(2.36905 0 0 2.37072 6.10352e-05 -1.52588e-05)" d="M171.411 38.2079C173.154 37.6597 175.057 38.0901 176.395 39.335C177.732 40.5798 178.298 42.4471 177.876 44.2249C177.454 46.0027 176.11 47.4169 174.356 47.9281C171.683 48.7071 168.881 47.1892 168.074 44.5248C167.267 41.8605 168.755 39.043 171.411 38.2079Z"/><path fill="#88B8BE" transform="matrix(2.36905 0 0 2.37072 6.10352e-05 -1.52588e-05)" d="M151.08 58.7855C157.599 58.1282 160.39 65.7579 153.504 68.8388C151.313 69.3444 149.084 68.5096 148.014 66.4616C147.328 65.1494 147.212 63.6132 147.693 62.213C148.308 60.3612 149.429 59.6215 151.08 58.7855Z"/><path fill="#88B8BE" transform="matrix(2.36905 0 0 2.37072 6.10352e-05 -1.52588e-05)" d="M97.8409 58.7921C99.8492 59.0954 100.379 59.4167 102.043 60.6075C103.661 64.6921 103.578 68.2414 98.3169 68.8848C93.4767 68.334 92.4121 65.1627 93.7129 60.9686C95.1311 59.6607 96.0035 59.3583 97.8409 58.7921Z"/><path fill="#88B8BE" transform="matrix(2.36905 0 0 2.37072 6.10352e-05 -1.52588e-05)" d="M240.08 76.056C239.555 75.0564 238.734 74.4796 237.968 73.7C234.399 70.0718 238.964 64.6556 243.252 66.2292C246.681 67.4877 246.879 70.6481 246.341 73.6501C244.52 75.5609 243.357 75.9514 240.696 76.2807L240.08 76.056Z"/><path fill="#88B8BE" transform="matrix(2.36905 0 0 2.37072 6.10352e-05 -1.52588e-05)" d="M107.342 99.0198C107.854 98.9932 108.726 98.9452 109.215 99.0499C110.571 99.3378 111.753 100.166 112.486 101.343C113.205 102.508 113.412 103.918 113.056 105.24C112.548 107.152 111.294 108.008 109.664 108.921C108.677 108.614 107.124 108.705 106.04 108.712C101.987 105.008 102.104 101.425 107.342 99.0198Z"/><path fill="#88B8BE" transform="matrix(2.36905 0 0 2.37072 6.10352e-05 -1.52588e-05)" d="M142.211 64.8332C144.294 64.8094 144.877 65.1164 146.666 66.1832C149.023 70.2466 148.483 72.711 144.013 74.5405C142.744 74.7558 141.338 74.7689 140.241 74.0174C137.86 72.3869 137.678 68.5441 139.218 66.2877C139.993 65.1524 140.993 65.0431 142.211 64.8332Z"/><path fill="#88B8BE" transform="matrix(2.36905 0 0 2.37072 6.10352e-05 -1.52588e-05)" d="M157.338 49.3029C160.594 49.1823 163.865 50.7378 163.073 54.6724C162.628 56.8813 160.912 58.0403 159.148 59.2183C156.464 59.5309 154.281 58.2333 153.53 55.6096C153.108 54.1797 153.298 52.6389 154.055 51.3546C154.846 50.0109 155.946 49.6785 157.338 49.3029Z"/><path fill="#88B8BE" transform="matrix(2.36905 0 0 2.37072 6.10352e-05 -1.52588e-05)" d="M177.307 29.2519C183.267 28.4509 187.483 33.9275 181.328 38.4922C177.195 40.0627 173.747 36.9077 174.578 32.686C174.958 30.7523 175.723 30.2643 177.307 29.2519Z"/><path fill="#88B8BE" transform="matrix(2.36905 0 0 2.37072 6.10352e-05 -1.52588e-05)" d="M28.274 123.546C30.8428 123.378 33.3013 124.402 34.2516 126.943C34.6877 128.081 34.6263 129.349 34.0824 130.439C33.3038 131.972 32.1239 132.534 30.5854 133.011C23.6007 133.409 22.3561 126.38 28.274 123.546Z"/><path fill="#88B8BE" transform="matrix(2.36905 0 0 2.37072 6.10352e-05 -1.52588e-05)" d="M280.536 81.0879L280.822 81.1143C282.458 81.2696 283.518 81.4567 284.612 82.8139C285.58 84.0197 286.013 85.5687 285.811 87.1017C285.499 89.5176 283.848 90.8752 281.438 90.5605C278.385 89.5107 272.487 86.577 277.368 82.5617C278.342 81.7604 279.275 81.3042 280.536 81.0879Z"/><path fill="#88B8BE" transform="matrix(2.36905 0 0 2.37072 6.10352e-05 -1.52588e-05)" d="M188.25 67.7612C193.682 68.0198 194.135 72.4721 192.41 76.6285C191.664 76.9219 190.604 77.2424 189.82 77.5034C188.958 77.5343 187.743 77.5836 186.946 77.3157C185.864 76.9407 184.992 76.1243 184.546 75.0693C183.707 73.0637 184.371 70.8555 185.162 68.9832C186.429 68.3484 186.891 68.1727 188.25 67.7612Z"/><path fill="#88B8BE" transform="matrix(2.36905 0 0 2.37072 6.10352e-05 -1.52588e-05)" d="M190.003 17.3111C196.403 16.6981 198.261 25.0533 192.236 26.1714C189.742 26.3154 187.272 26.4118 186.107 23.6571C185.66 22.6019 185.678 21.4074 186.158 20.3665C187.037 18.4589 188.189 18.05 190.003 17.3111Z"/><path fill="#88B8BE" transform="matrix(2.36905 0 0 2.37072 6.10352e-05 -1.52588e-05)" d="M206.807 48.8062C214.25 48.5281 214.07 55.7371 207.776 57.9423C202.832 58.4516 199.391 51.3641 206.807 48.8062Z"/><path fill="#88B8BE" transform="matrix(2.36905 0 0 2.37072 6.10352e-05 -1.52588e-05)" d="M219.27 38.7444C218.35 36.7127 218.983 34.3143 220.786 33.0008C222.588 31.6872 225.065 31.8194 226.718 33.3173C228.37 34.8152 228.744 37.2674 227.613 39.1897C227.354 39.6306 227.024 40.0263 226.637 40.3611C225.865 41.03 224.896 41.4292 223.876 41.4986C221.917 41.6318 220.08 40.5338 219.27 38.7444Z"/><path fill="#88B8BE" transform="matrix(2.36905 0 0 2.37072 6.10352e-05 -1.52588e-05)" d="M79.0447 69.7781C85.8183 69.3229 86.9384 76.1412 81.4308 79.0535C79.1009 79.3728 77.1039 78.9187 76.0906 76.5031C75.5233 75.125 75.5319 73.5771 76.1146 72.2055C76.8023 70.5921 77.5081 70.3715 79.0447 69.7781Z"/><path fill="#88B8BE" transform="matrix(2.36905 0 0 2.37072 6.10352e-05 -1.52588e-05)" d="M107.447 42.5306C108.551 42.4296 109.418 42.4593 110.456 42.9577C111.601 43.5184 112.472 44.5164 112.872 45.7265C113.285 46.962 113.176 48.3127 112.57 49.4658C111.832 50.888 111.075 50.9551 109.555 51.451C103.249 52.5999 101.23 45.5403 107.447 42.5306Z"/><path fill="#88B8BE" transform="matrix(2.36905 0 0 2.37072 6.10352e-05 -1.52588e-05)" d="M69.616 81.3361C72.9973 81.7022 73.3085 82.9747 74.0408 85.9813C73.2188 88.7352 72.0871 90.1072 69.4072 91.0827C64.142 90.2679 62.3506 82.2345 69.616 81.3361Z"/><path fill="#88B8BE" transform="matrix(2.36905 0 0 2.37072 6.10352e-05 -1.52588e-05)" d="M123.328 75.5461C125.709 75.4065 128.059 76.1178 128.829 78.6652C129.159 79.7837 129.033 80.9874 128.478 82.0129C127.598 83.6628 126.745 83.9408 125.091 84.4458C119.56 84.7036 117.023 78.3476 123.328 75.5461Z"/><path fill="#88B8BE" transform="matrix(2.36905 0 0 2.37072 6.10352e-05 -1.52588e-05)" d="M96.2047 103.523C98.4686 103.343 100.514 103.926 101.589 106.111C102.116 107.165 102.162 108.394 101.716 109.484C101.067 111.103 100.066 111.452 98.5976 112.073C97.4324 112.255 96.3906 112.328 95.2599 111.871C94.1781 111.427 93.3283 110.556 92.9118 109.463C92.4682 108.287 92.5297 106.979 93.0818 105.849C93.8392 104.264 94.6434 104.09 96.2047 103.523Z"/><path fill="#88B8BE" transform="matrix(2.36905 0 0 2.37072 6.10352e-05 -1.52588e-05)" d="M57.2581 92.0332C62.0152 91.8024 63.8797 95.303 61.9322 99.5647C61.3969 100.736 60.463 100.99 59.2695 101.262C58.36 101.204 57.073 100.972 56.1436 100.831C55.1323 99.9567 54.8464 99.546 54.0418 98.4586C53.8845 95.1469 54.0518 93.5621 57.2581 92.0332Z"/><path fill="#88B8BE" transform="matrix(2.36905 0 0 2.37072 6.10352e-05 -1.52588e-05)" d="M39.1845 107.493C44.2359 107.329 47.1721 115.105 40.5707 116.732C35.8416 117.002 34.6947 113.891 35.9305 109.841C37.0383 108.649 37.7642 108.25 39.1845 107.493Z"/><path fill="#88B8BE" transform="matrix(2.36905 0 0 2.37072 6.10352e-05 -1.52588e-05)" d="M178.577 19.3119C180.963 18.53 183.528 19.8434 184.289 22.2359C185.049 24.6284 183.713 27.182 181.313 27.9208C178.944 28.6503 176.43 27.3344 175.679 24.9722C174.929 22.6099 176.222 20.0839 178.577 19.3119Z"/><path fill="#88B8BE" transform="matrix(2.36905 0 0 2.37072 6.10352e-05 -1.52588e-05)" d="M193.355 55.0617C199.018 55.8746 199.256 61.991 193.525 64.0636C189.387 64.0347 187.736 59.718 189.931 56.5102C190.738 55.3299 192.029 55.2425 193.355 55.0617Z"/><path fill="#88B8BE" transform="matrix(2.36905 0 0 2.37072 6.10352e-05 -1.52588e-05)" d="M130.958 65.2713C132.743 65.1339 133.303 65.4069 134.873 66.1196C137.27 69.5077 137.204 71.9678 133.2 73.9607C128.882 75.192 126.975 70.9185 128.346 67.4656C128.904 66.0593 129.643 65.7934 130.958 65.2713Z"/><path fill="#88B8BE" transform="matrix(2.36905 0 0 2.37072 6.10352e-05 -1.52588e-05)" d="M243.066 55.7509C248.399 55.5536 250.495 61.9357 245.028 64.7671C242.877 64.896 240.991 64.2534 240.067 62.1154C239.554 60.9272 239.555 59.5796 240.071 58.3924C240.774 56.7507 241.541 56.3846 243.066 55.7509Z"/><path fill="#88B8BE" transform="matrix(2.36905 0 0 2.37072 6.10352e-05 -1.52588e-05)" d="M88.0719 109.759C91.3768 109.634 94.4179 111.808 93.227 115.592C92.7212 117.2 91.355 117.712 89.9189 118.372C86.4856 118.637 85.6039 117.578 84.3687 114.598C85.1328 111.871 85.7143 111.343 88.0719 109.759Z"/><path fill="#88B8BE" transform="matrix(2.36905 0 0 2.37072 6.10352e-05 -1.52588e-05)" d="M118.018 24.5002C123.667 23.8406 126.616 28.2642 121.727 32.4107C116.049 34.8285 113.56 27.4896 118.018 24.5002Z"/><path fill="#88B8BE" transform="matrix(2.36905 0 0 2.37072 6.10352e-05 -1.52588e-05)" d="M39.1617 127.311C41.7215 127.122 46.1577 127.366 47.145 130.356C47.1029 132.5 45.105 132.556 43.4386 132.865C41.3497 133.192 36.7963 134.611 35.5795 132.778C35.4014 130.709 37.2478 128.155 39.1617 127.311Z"/><path fill="#88B8BE" transform="matrix(2.36905 0 0 2.37072 6.10352e-05 -1.52588e-05)" d="M90.9615 51.0349C96.6225 50.7833 98.7846 56.2424 93.3755 59.3632C88.0247 60.6432 85.807 53.3258 90.9615 51.0349Z"/><path fill="#88B8BE" transform="matrix(2.36905 0 0 2.37072 6.10352e-05 -1.52588e-05)" d="M271.06 76.7969C271.378 76.8353 271.694 76.8812 272.009 76.9346C277.608 77.8972 276.522 82.8217 272.414 85.3817C267.585 85.8209 264.584 78.6725 271.06 76.7969Z"/><path fill="#88B8BE" transform="matrix(2.36905 0 0 2.37072 6.10352e-05 -1.52588e-05)" d="M177.374 68.4707C179.61 67.9682 181.837 69.3467 182.384 71.5721C182.932 73.7975 181.598 76.0519 179.384 76.644C177.912 77.0377 176.342 76.6048 175.279 75.5123C174.217 74.4198 173.828 72.8383 174.262 71.3775C174.697 69.9168 175.887 68.8049 177.374 68.4707Z"/><path fill="#88B8BE" transform="matrix(2.36905 0 0 2.37072 6.10352e-05 -1.52588e-05)" d="M110.11 82.9808C111.328 82.7345 112.592 83.041 113.561 83.8175C114.531 84.5941 115.106 85.7607 115.131 87.0026C115.17 88.8992 113.93 90.5854 112.108 91.1134C110.63 91.5417 109.037 91.1259 107.957 90.0302C106.877 88.9346 106.484 87.3353 106.933 85.8639C107.383 84.3926 108.602 83.2859 110.11 82.9808Z"/><path fill="#88B8BE" transform="matrix(2.36905 0 0 2.37072 6.10352e-05 -1.52588e-05)" d="M210.043 35.51C212.243 35.2103 214.294 36.6784 214.719 38.8569C215.145 41.0353 213.797 43.1675 211.647 43.7176C209.567 44.2497 207.421 43.1228 206.679 41.1082C206.24 39.9168 206.365 38.5907 207.019 37.5025C207.673 36.4142 208.785 35.6814 210.043 35.51Z"/><path fill="#88B8BE" transform="matrix(2.36905 0 0 2.37072 6.10352e-05 -1.52588e-05)" d="M157.513 34.7826C162.968 34.0727 166.041 38.9041 160.304 42.3527C156.971 43.0038 155.528 42.0228 154.315 38.9828C154.416 38.6154 154.524 38.25 154.639 37.8868C155.251 35.9821 155.852 35.6403 157.513 34.7826Z"/><path fill="#88B8BE" transform="matrix(2.36905 0 0 2.37072 6.10352e-05 -1.52588e-05)" d="M146.151 49.7681C152.291 50.1751 151.989 55.9307 147.431 58.3134C145.265 58.2665 143.526 57.471 142.778 55.3113C142.38 54.1894 142.478 52.9512 143.047 51.9056C143.816 50.5085 144.762 50.1928 146.151 49.7681Z"/><path fill="#88B8BE" transform="matrix(2.36905 0 0 2.37072 6.10352e-05 -1.52588e-05)" d="M249.067 46.2553C253.874 46.2436 255.973 51.7054 250.844 54.5847C246.793 54.9803 245.016 52.6676 246.134 48.6643C246.546 47.1933 247.719 46.8354 249.067 46.2553Z"/><path fill="#88B8BE" transform="matrix(2.36905 0 0 2.37072 6.10352e-05 -1.52588e-05)" d="M96.1272 42.3561C97.4585 41.7811 98.9966 41.9696 100.15 42.8491C101.303 43.7287 101.891 45.1622 101.688 46.5981C101.485 48.0341 100.523 49.2487 99.1719 49.7747C97.1346 50.5677 94.8375 49.5827 94.0074 47.5602C93.1773 45.5377 94.1202 43.223 96.1272 42.3561Z"/><path fill="#88B8BE" transform="matrix(2.36905 0 0 2.37072 6.10352e-05 -1.52588e-05)" d="M135.458 55.3107C136.098 55.2178 136.746 55.1779 137.393 55.1914C138.563 55.2168 139.669 55.7343 140.438 56.6169C142.354 58.8088 140.796 61.1194 138.945 62.5926C133.093 64.3733 131.477 57.7854 135.458 55.3107Z"/><path fill="#88B8BE" transform="matrix(2.36905 0 0 2.37072 6.10352e-05 -1.52588e-05)" d="M40.5656 97.0473C42.6971 96.5248 44.8468 97.836 45.3577 99.9702C45.8686 102.104 44.5458 104.247 42.4088 104.746C40.2882 105.242 38.1656 103.931 37.6585 101.813C37.1515 99.6955 38.4505 97.5658 40.5656 97.0473Z"/><path fill="#88B8BE" transform="matrix(2.36905 0 0 2.37072 6.10352e-05 -1.52588e-05)" d="M168.315 20.5335C173.834 20.2923 174.306 26.7734 169.692 28.5244C167.836 28.47 166.195 27.773 165.43 25.9504C165.035 24.9957 165.04 23.9223 165.444 22.9713C166.071 21.4564 166.922 21.1416 168.315 20.5335Z"/><path fill="#88B8BE" transform="matrix(2.36905 0 0 2.37072 6.10352e-05 -1.52588e-05)" d="M170.05 77.2302C172.629 76.9043 176.693 77.6977 175.702 81.625C175.479 82.5107 173.806 83.0685 172.943 83.4364C170.615 84.4234 167.222 85.4335 167.365 81.02C167.416 79.455 168.801 78.1212 170.05 77.2302Z"/><path fill="#88B8BE" transform="matrix(2.36905 0 0 2.37072 6.10352e-05 -1.52588e-05)" d="M199.63 40.5216C200.989 40.183 202.425 40.6032 203.387 41.6209C204.35 42.6386 204.689 44.0959 204.275 45.4341C203.862 46.7724 202.759 47.7838 201.39 48.0805C199.318 48.5298 197.269 47.2329 196.788 45.1679C196.307 43.1028 197.572 41.0341 199.63 40.5216Z"/><path fill="#88B8BE" transform="matrix(2.36905 0 0 2.37072 6.10352e-05 -1.52588e-05)" d="M82.0896 55.4761C87.6094 55.6151 88.4821 60.8381 83.6104 63.0157C78.3559 63.5001 77.0963 57.9454 82.0896 55.4761Z"/><path fill="#88B8BE" transform="matrix(2.36905 0 0 2.37072 6.10352e-05 -1.52588e-05)" d="M160.98 79.6387C163.048 79.4401 164.896 80.9295 165.142 82.9927C165.388 85.056 163.941 86.9379 161.884 87.2309C160.511 87.4264 159.14 86.863 158.301 85.7587C157.461 84.6544 157.286 83.1822 157.842 81.9116C158.398 80.641 159.599 79.7713 160.98 79.6387Z"/><path fill="#88B8BE" transform="matrix(2.36905 0 0 2.37072 6.10352e-05 -1.52588e-05)" d="M214.018 24.776C219.434 25.7053 219.974 30.3858 215.298 32.5081C209.408 32.7019 209.814 26.3282 214.018 24.776Z"/><path fill="#88B8BE" transform="matrix(2.36905 0 0 2.37072 6.10352e-05 -1.52588e-05)" d="M108.769 28.4565C113.819 28.5951 115.877 34.8734 110.566 35.765C110.108 35.7919 109.036 35.8027 108.602 35.7417C107.791 35.6234 107.062 35.1816 106.582 34.5171C104.944 32.2588 106.759 29.668 108.769 28.4565Z"/><path fill="#88B8BE" transform="matrix(2.36905 0 0 2.37072 6.10352e-05 -1.52588e-05)" d="M98.2343 89.1688C100.176 88.6201 102.201 89.726 102.788 91.6567C103.376 93.5874 102.311 95.6334 100.392 96.2596C99.1165 96.6761 97.7152 96.3704 96.7288 95.4605C95.7423 94.5506 95.3248 93.1785 95.6371 91.8733C95.9494 90.5681 96.9428 89.5336 98.2343 89.1688Z"/><path fill="#88B8BE" transform="matrix(2.36905 0 0 2.37072 6.10352e-05 -1.52588e-05)" d="M226.555 61.3674C228.475 61.0914 230.27 62.3787 230.625 64.2853C230.98 66.1918 229.767 68.0387 227.877 68.4713C226.583 68.7673 225.231 68.3308 224.354 67.334C223.478 66.3371 223.218 64.9403 223.678 63.6951C224.137 62.4498 225.242 61.5563 226.555 61.3674Z"/><path fill="#88B8BE" transform="matrix(2.36905 0 0 2.37072 6.10352e-05 -1.52588e-05)" d="M71.9195 112.601C73.2031 112.339 74.5271 112.797 75.375 113.796C76.223 114.794 76.4606 116.175 75.9952 117.399C75.5298 118.623 74.4351 119.498 73.138 119.681C71.2147 119.952 69.4239 118.646 69.0945 116.732C68.765 114.817 70.0162 112.988 71.9195 112.601Z"/><path fill="#88B8BE" transform="matrix(2.36905 0 0 2.37072 6.10352e-05 -1.52588e-05)" d="M60.5491 74.2425C63.483 74.2072 65.754 76.0873 64.4559 79.3004C63.9227 80.6202 62.8737 80.8513 61.5945 81.2634C56.3253 80.7397 56.1025 76.5382 60.5491 74.2425Z"/><path fill="#88B8BE" transform="matrix(2.36905 0 0 2.37072 6.10352e-05 -1.52588e-05)" d="M112.168 72.7569C117.232 72.6181 117.678 78.4176 112.859 79.7695C108.629 79.948 106.938 74.1965 112.168 72.7569Z"/><path fill="#88B8BE" transform="matrix(2.36905 0 0 2.37072 6.10352e-05 -1.52588e-05)" d="M273.837 65.5204C273.986 65.5541 274.135 65.5905 274.283 65.6297C278.418 66.7412 278.833 70.9643 274.27 72.6624C268.811 72.1154 268.855 67.3096 273.837 65.5204Z"/><path fill="#88B8BE" transform="matrix(2.36905 0 0 2.37072 6.10352e-05 -1.52588e-05)" d="M179.298 55.5663C184.9 55.3073 185.533 59.9436 181.464 62.1098C177.4 62.9574 174.542 57.7113 179.298 55.5663Z"/><path fill="#88B8BE" transform="matrix(2.36905 0 0 2.37072 6.10352e-05 -1.52588e-05)" d="M164.682 69.7515C165.437 69.7044 166.08 69.6693 166.83 69.8089C167.921 70.0185 168.874 70.6773 169.456 71.6242C170.531 73.3747 169.468 75.2856 167.812 76.1437C165.302 76.5004 162.855 76.2483 162.776 72.6427C162.749 71.3985 163.695 70.4547 164.682 69.7515Z"/><path fill="#88B8BE" transform="matrix(2.36905 0 0 2.37072 6.10352e-05 -1.52588e-05)" d="M120.956 64.5119C125.688 64.3768 127.643 69.289 122.475 70.8932C117.489 70.9014 116.348 66.9843 120.956 64.5119Z"/><path fill="#88B8BE" transform="matrix(2.36905 0 0 2.37072 6.10352e-05 -1.52588e-05)" d="M46.5758 86.2722C51.8064 86.2932 52.7631 90.7716 48.2977 92.7005C43.3246 92.8596 41.9347 88.5266 46.5758 86.2722Z"/><path fill="#88B8BE" transform="matrix(2.36905 0 0 2.37072 6.10352e-05 -1.52588e-05)" d="M87.4771 96.3007C92.0376 95.8165 94.8878 99.3769 90.3883 102.138C89.6968 102.288 89.1553 102.418 88.4464 102.312C87.3876 102.157 86.4471 101.552 85.8665 100.653C85.4339 99.9722 85.3152 99.1381 85.5407 98.3636C85.8817 97.167 86.4762 96.883 87.4771 96.3007Z"/><path fill="#88B8BE" transform="matrix(2.36905 0 0 2.37072 6.10352e-05 -1.52588e-05)" d="M232.892 51.4264C237.223 51.3176 238.383 55.9528 234.677 58.2246C230.029 58.7028 229.319 53.9231 232.892 51.4264Z"/><path fill="#88B8BE" transform="matrix(2.36905 0 0 2.37072 6.10352e-05 -1.52588e-05)" d="M144.689 37.283C145.856 37.0262 147.07 37.4322 147.848 38.3395C148.626 39.2469 148.842 40.5086 148.41 41.623C147.978 42.7375 146.968 43.524 145.782 43.67C144.063 43.8816 142.481 42.7052 142.189 40.9979C141.896 39.2907 142.997 37.6552 144.689 37.283Z"/><path fill="#88B8BE" transform="matrix(2.36905 0 0 2.37072 6.10352e-05 -1.52588e-05)" d="M70.682 59.7781C75.301 59.3474 77.7066 63.0619 73.6366 65.5499C69.299 66.605 66.8287 62.2825 70.682 59.7781Z"/><path fill="#88B8BE" transform="matrix(2.36905 0 0 2.37072 6.10352e-05 -1.52588e-05)" d="M216.083 67.2521C220.512 68.2262 220.989 72.4079 216.958 74.1487C214.723 73.9642 213.071 72.9586 213.509 70.3866C213.801 68.6707 214.737 68.1601 216.083 67.2521Z"/><path fill="#88B8BE" transform="matrix(2.36905 0 0 2.37072 6.10352e-05 -1.52588e-05)" d="M263.031 70.8161C264.124 70.3902 265.363 70.594 266.262 71.3479C267.162 72.1018 267.579 73.2859 267.351 74.4371C267.122 75.5882 266.285 76.5235 265.166 76.877C263.512 77.3994 261.742 76.5156 261.165 74.8797C260.589 73.2438 261.415 71.4456 263.031 70.8161Z"/><path fill="#88B8BE" transform="matrix(2.36905 0 0 2.37072 6.10352e-05 -1.52588e-05)" d="M60.8671 118.77C65.4403 118.671 66.0802 122.873 62.5775 124.612C58.5247 124.946 56.4214 121.022 60.8671 118.77Z"/><path fill="#88B8BE" transform="matrix(2.36905 0 0 2.37072 6.10352e-05 -1.52588e-05)" d="M80.9925 46.2432C85.2816 45.8011 86.6732 49.9651 82.5719 51.866C78.7277 52.7034 77.9948 48.5299 80.9925 46.2432Z"/><path fill="#88B8BE" transform="matrix(2.36905 0 0 2.37072 6.10352e-05 -1.52588e-05)" d="M242.178 39.3459C243.189 39.0565 244.277 39.3375 245.022 40.0802C245.766 40.8229 246.05 41.9106 245.763 42.9222C245.475 43.9338 244.663 44.7104 243.639 44.9513C242.108 45.3116 240.569 44.3842 240.172 42.8619C239.775 41.3396 240.666 39.7789 242.178 39.3459Z"/><path fill="#88B8BE" transform="matrix(2.36905 0 0 2.37072 6.10352e-05 -1.52588e-05)" d="M75.8609 101.298C77.9677 99.3621 80.2531 99.6484 81.2364 102.467C79.4999 107.825 74.741 106.704 75.8609 101.298Z"/><path fill="#88B8BE" transform="matrix(2.36905 0 0 2.37072 6.10352e-05 -1.52588e-05)" d="M200.322 28.0567C205.122 27.5823 206.311 31.796 202.628 33.2995C199.317 34.0332 197.384 30.3503 200.322 28.0567Z"/><path fill="#88B8BE" transform="matrix(2.36905 0 0 2.37072 6.10352e-05 -1.52588e-05)" d="M131.263 45.5542C135.044 46.1556 135.409 49.6098 131.458 50.9402C129.658 50.616 127.913 49.482 128.684 47.376C129.103 46.2311 130.195 45.967 131.263 45.5542Z"/><path fill="#88B8BE" transform="matrix(2.36905 0 0 2.37072 6.10352e-05 -1.52588e-05)" d="M156.938 19.4812C160.321 19.3654 161.911 22.8044 158.747 24.5706C154.694 25.3425 153.196 21.4841 156.938 19.4812Z"/><path fill="#88B8BE" transform="matrix(2.36905 0 0 2.37072 6.10352e-05 -1.52588e-05)" d="M154.946 71.9203C155.881 71.5704 156.932 71.7612 157.684 72.4172C158.436 73.0731 158.768 74.0887 158.548 75.0622C158.329 76.0356 157.593 76.8103 156.632 77.0797C155.231 77.4726 153.769 76.6912 153.317 75.3078C152.865 73.9244 153.583 72.4306 154.946 71.9203Z"/><path fill="#88B8BE" transform="matrix(2.36905 0 0 2.37072 6.10352e-05 -1.52588e-05)" d="M183.274 42.9939C186.788 43.0341 187.834 46.63 183.863 47.9951C180.726 47.2271 179.874 44.2504 183.274 42.9939Z"/><path fill="#88B8BE" transform="matrix(2.36905 0 0 2.37072 6.10352e-05 -1.52588e-05)" d="M146.836 27.3655C148.131 27.3081 149.248 28.2637 149.392 29.5511C149.535 30.8385 148.657 32.017 147.382 32.2466C146.478 32.4093 145.558 32.055 144.997 31.3277C144.436 30.6004 144.326 29.621 144.713 28.7878C145.1 27.9546 145.919 27.4062 146.836 27.3655Z"/><path fill="#88B8BE" transform="matrix(2.36905 0 0 2.37072 6.10352e-05 -1.52588e-05)" d="M168.36 56.1195C169.182 55.8125 170.106 55.9776 170.77 56.5502C171.435 57.1228 171.736 58.012 171.554 58.8704C171.372 59.7288 170.738 60.4202 169.898 60.6745C168.655 61.0508 167.338 60.3725 166.922 59.1421C166.507 57.9117 167.143 56.5737 168.36 56.1195Z"/><path fill="#88B8BE" transform="matrix(2.36905 0 0 2.37072 6.10352e-05 -1.52588e-05)" d="M51.3129 122.312C52.5506 122.075 53.7521 122.866 54.0249 124.096C54.2977 125.326 53.543 126.55 52.3213 126.859C51.4986 127.067 50.6279 126.811 50.0485 126.191C49.469 125.571 49.2725 124.685 49.5355 123.878C49.7985 123.071 50.4794 122.471 51.3129 122.312Z"/><path fill="#88B8BE" transform="matrix(2.36905 0 0 2.37072 6.10352e-05 -1.52588e-05)" d="M87.922 83.9182C90.8816 83.891 93.5115 85.8252 90.4489 88.2449C87.1573 89.5448 86.7046 86.4791 87.922 83.9182Z"/><path fill="#88B8BE" transform="matrix(2.36905 0 0 2.37072 6.10352e-05 -1.52588e-05)" d="M108.716 109.648L108.961 109.782C108.297 111.277 104.799 111.694 103.342 111.936C103.036 111.487 103.126 111.744 103.181 111.113C104.309 110.071 107.128 109.867 108.716 109.648Z"/><path fill="#88B8BE" transform="matrix(2.36905 0 0 2.37072 6.10352e-05 -1.52588e-05)" d="M240.696 76.2807C239.357 76.7299 236.752 77.1849 235.452 76.5308L235.718 76.2571C237.091 75.8125 238.624 75.9911 240.08 76.056L240.696 76.2807Z"/><path fill="#88B8BE" fill-opacity="0.96078432" transform="matrix(2.36905 0 0 2.37072 6.10352e-05 -1.52588e-05)" d="M259.344 81.248C259.693 81.2731 260.041 81.3164 260.386 81.3777C261.917 81.6561 262.953 81.9271 263.855 83.2489C262.207 83.0934 260.542 82.4078 259.344 81.248Z"/><path fill="#8EA7BB" fill-opacity="0.98431373" transform="matrix(2.36905 0 0 2.37072 6.10352e-05 -1.52588e-05)" d="M83.1463 120.244L83.5514 120.305L83.6713 120.577C83.0972 121.224 81.9117 121.699 81.0822 122.102L80.6939 121.746L80.7465 121.355C81.5089 120.831 82.2885 120.574 83.1463 120.244Z"/><path fill="#E2F4F4" fill-opacity="0.023529412" transform="matrix(2.36905 0 0 2.37072 6.10352e-05 -1.52588e-05)" d="M227.613 39.1897L228.732 39.4402L227.55 40.7687L226.637 40.3611C227.024 40.0263 227.354 39.6306 227.613 39.1897Z"/></svg>